<svg width="143" height="143" fill="none" xmlns="http://www.w3.org/2000/svg"><path d="M51.004 75.298L47.851 63.2h-4.096L40.65 75.298 37.11 63.2h-4.85l5.867 19.05h4.171l3.22-12.587 3.235 12.587h4.063l5.578-19.05H54.48l-3.476 12.098zm28.243 6.952l5.578-19.05H80.91l-3.475 12.098L74.282 63.2h-4.097l-3.103 12.098L63.54 63.2h-4.85l5.868 19.05h4.17l3.22-12.587 3.236 12.587h4.063zm15.913 0l3.22-12.587 3.235 12.587h4.055l5.586-19.05h-3.914l-3.476 12.098-3.153-12.098h-4.105l-3.095 12.098-3.55-12.098h-4.841l5.867 19.05h4.171z" fill="#077C75"/><path d="M142.712 69.952c0-.116-.009-.231-.009-.347l-.008-.199c-.008-.372-.025-.745-.041-1.117l-.025-.48-.008-.166a43.378 43.378 0 00-.067-1.017l-.049-.67c-.025-.332-.058-.663-.083-.994a16.885 16.885 0 00-.066-.67c-.033-.331-.075-.67-.108-1.002l-.016-.165c-.017-.157-.033-.323-.058-.48l-.149-1.084-.025-.199-.05-.347a52.092 52.092 0 00-.256-1.598c-.008-.066-.025-.124-.033-.19l-.025-.132c-.091-.497-.166-.902-.24-1.291-.025-.14-.058-.282-.083-.422l-.041-.199c-.066-.323-.133-.654-.207-.976-.041-.19-.091-.39-.133-.588l-.024-.1a42.093 42.093 0 00-.215-.901c-.058-.24-.116-.472-.183-.712a34.86 34.86 0 00-.231-.869c-.066-.24-.133-.472-.199-.712l-.248-.869-.042-.148c-.057-.182-.107-.365-.165-.555a34.177 34.177 0 00-.265-.844l-.091-.273c-.05-.15-.091-.29-.141-.43-.165-.505-.339-1.002-.504-1.474-.05-.132-.1-.273-.149-.405l-.124-.34a30.508 30.508 0 00-.29-.777c-.066-.182-.141-.364-.215-.546l-.091-.224c-.1-.248-.191-.488-.29-.736-.099-.248-.207-.497-.314-.745-.108-.248-.207-.497-.315-.737-.107-.248-.223-.504-.331-.753-.107-.24-.215-.48-.331-.72a21.458 21.458 0 00-.356-.753 45.183 45.183 0 00-.339-.695l-.058-.124c-.108-.215-.207-.422-.314-.637-.083-.166-.174-.331-.257-.505l-.199-.372c-.099-.19-.19-.373-.289-.555-.042-.083-.091-.157-.133-.24l-.091-.157c-.306-.554-.629-1.125-.96-1.705l-.107-.182c-.083-.14-.166-.29-.248-.43-.133-.215-.257-.43-.389-.646l-.141-.231c-.099-.166-.207-.34-.315-.505-.157-.257-.322-.505-.488-.762-.132-.198-.256-.405-.389-.604-.165-.248-.331-.505-.505-.753a22.91 22.91 0 00-.405-.587c-.174-.249-.348-.497-.521-.753-.1-.141-.207-.282-.307-.43l-.173-.24c-.158-.216-.315-.44-.48-.654-.091-.116-.174-.232-.265-.348l-.124-.157a74.142 74.142 0 00-4.08-4.9l-.017-.016c-.397-.43-.761-.82-1.109-1.192-.389-.405-.778-.81-1.158-1.191C108.542 8.027 90.717.645 71.757.645c-18.959 0-36.776 7.382-50.182 20.788-.38.38-.77.778-1.158 1.183-.356.373-.72.77-1.126 1.2a76.159 76.159 0 00-2.549 2.947l-.041.057c-.472.58-.96 1.2-1.49 1.895l-.132.174c-.091.116-.174.232-.265.348-.157.215-.314.422-.472.637l-.173.24c-.108.149-.216.29-.323.439l-.521.744c-.133.199-.274.39-.406.588-.165.248-.34.497-.505.753-.132.199-.265.406-.397.604-.166.248-.323.505-.48.753-.108.174-.215.356-.323.53l-.124.199c-.132.215-.265.43-.397.653-.091.15-.174.298-.265.455l-.1.174c-.305.53-.603 1.06-.893 1.58l-.108.191-.173.323c-.1.182-.19.364-.29.554l-.199.381c-.09.174-.173.34-.264.513-.108.207-.207.422-.315.629l-.074.157c-.108.224-.216.439-.323.662-.124.249-.24.505-.356.753-.108.24-.223.48-.331.72-.116.249-.223.505-.331.753l-.323.745a28.73 28.73 0 00-.306.737c-.1.24-.19.48-.29.72l-.082.24a14.86 14.86 0 00-.216.546l-.297.794-.116.323-.15.397a75.3 75.3 0 00-.504 1.473c-.041.133-.091.273-.132.406l-.091.29c-.092.28-.183.57-.274.852-.058.182-.107.364-.165.546l-.041.149c-.083.29-.174.58-.249.869l-.198.712c-.075.29-.158.579-.232.877l-.174.711c-.074.298-.14.605-.215.902l-.025.1c-.05.198-.09.397-.132.587-.075.323-.14.646-.207.977l-.042.199c-.033.14-.057.28-.082.421-.075.381-.15.795-.24 1.291l-.025.133c-.008.066-.025.124-.033.19a59.19 59.19 0 00-.257 1.597l-.05.348-.024.199-.15 1.084c-.016.157-.04.314-.057.48l-.017.165c-.041.331-.074.67-.107 1.002-.025.223-.042.446-.066.67-.034.33-.058.662-.083.993l-.05.67c-.025.34-.041.679-.066 1.018l-.008.149-.025.497c-.017.372-.033.744-.042 1.117l-.008.198c0 .116-.008.232-.008.356a58.782 58.782 0 00-.025 1.664c0 .53.008 1.075.017 1.671 0 .116.008.232.008.356l.008.19a50.382 50.382 0 00.066 1.614l.009.15c.016.338.041.678.066 1.017l.05.67c.024.331.057.662.082.993.017.224.042.447.067.67.033.332.074.671.107 1.002l.017.157c.016.157.033.323.058.48.05.364.099.728.149 1.084l.024.199.05.347c.083.563.166 1.085.257 1.598.008.066.024.124.033.19l.024.132c.091.497.166.902.24 1.291.025.141.058.282.083.422l.042.2c.066.322.132.653.206.976.042.198.092.405.141.604l.017.082c.066.298.14.605.215.903l.174.711c.074.29.149.588.231.877.067.24.125.472.199.712l.248.869.042.157c.05.182.107.364.165.538.091.29.182.58.273.86l.083.257c.041.141.091.282.14.43.166.505.34 1.002.505 1.474.05.132.092.256.141.397l.124.34c.1.264.19.52.29.785.066.182.14.364.215.546l.091.224c.1.24.19.488.29.728.1.24.198.472.298.72l.008.025c.108.248.207.496.314.745.108.248.224.505.331.753.108.24.216.48.331.72.116.248.232.505.356.753.1.215.207.422.307.637l.09.19c.108.216.207.423.315.629.091.174.182.356.273.53l.19.356c.1.182.19.372.29.554.058.108.116.207.174.307l.116.206c.281.522.587 1.051.893 1.581l.108.182c.083.149.174.29.257.439.132.215.256.43.388.645l.133.207.323.521c.157.257.322.505.48.762.132.198.264.405.397.604.165.248.33.505.505.753.132.199.273.397.405.588l.522.744c.107.158.223.307.33.464l.158.215.463.637c.091.116.174.232.265.348l.124.165c.546.72 1.043 1.349 1.523 1.937l.016.016a69.122 69.122 0 003.667 4.146c.388.406.777.803 1.158 1.192 13.406 13.406 31.223 20.788 50.183 20.788 18.959 0 36.776-7.382 50.182-20.788a72.249 72.249 0 006.372-7.291l.141-.19.248-.323c.166-.223.331-.447.505-.687l.132-.182.331-.455c.174-.248.356-.497.53-.753.132-.199.273-.389.406-.588.173-.248.339-.504.504-.753.133-.198.265-.397.389-.604.166-.248.323-.505.48-.761.108-.166.207-.331.307-.497l.132-.223c.132-.224.273-.439.405-.662.091-.149.174-.298.257-.447l.099-.174c.323-.563.646-1.117.935-1.663l.091-.174c.05-.091.1-.174.149-.265.1-.19.199-.372.298-.563l.199-.38c.083-.166.174-.331.256-.497.108-.207.207-.413.315-.629l.083-.157.322-.67c.125-.248.24-.505.356-.753.108-.24.224-.48.331-.72.116-.248.224-.505.331-.753.108-.249.215-.497.315-.745.107-.248.207-.497.314-.745.1-.232.191-.472.282-.712l.107-.273c.066-.174.141-.347.207-.521.099-.265.199-.521.29-.786l.124-.331.149-.397c.174-.48.339-.969.505-1.473.049-.141.091-.282.14-.422l.083-.274.273-.852c.058-.174.108-.356.157-.538l.05-.157c.083-.29.174-.58.248-.87.067-.239.133-.47.199-.71.074-.29.157-.58.232-.878l.173-.712c.075-.298.141-.604.216-.902l.024-.107c.042-.19.091-.39.133-.58.074-.322.14-.653.207-.976l.041-.207c.025-.14.058-.273.083-.414.074-.38.149-.794.24-1.29l.025-.133c.008-.058.024-.124.033-.182a48.9 48.9 0 00.256-1.606l.05-.347.025-.199c.049-.364.099-.72.149-1.084.016-.165.041-.323.058-.488l.016-.157c.042-.331.075-.67.108-1.002.025-.223.041-.447.066-.67.033-.331.058-.662.083-.993l.049-.67c.025-.34.042-.679.067-1.018l.008-.15.025-.496c.016-.372.033-.745.041-1.117l.008-.199c0-.115.009-.231.009-.347.016-.596.016-1.142.016-1.672.033-.48.033-1.026.017-1.622zm-47.94-58.524l.273.1c.347.132.72.28 1.15.463l.133.05c.066.024.14.057.206.082.39.166.795.34 1.242.538l.231.1c.456.206.92.413 1.374.637l.083.033a64.9 64.9 0 0114.871 9.84l.025.024c.405.356.803.712 1.183 1.068l.025.024c.364.34.737.687 1.092 1.043l.083.083c.364.356.737.728 1.101 1.1-3.178 1.854-6.687 3.518-10.427 4.957a77.31 77.31 0 00-4.684-9.483c-2.408-4.097-5.09-7.68-7.978-10.676l.017.017zM75.026 7.439c8.193 1.316 16.014 7.68 22.055 17.958a69.367 69.367 0 014.113 8.267c-8.135 2.408-16.94 3.757-26.176 4.022V7.44h.008zm0 36.785c10.022-.265 19.589-1.755 28.452-4.42a91.344 91.344 0 012.648 10.088h-31.1v-5.668zM68.49 7.439v30.247c-9.236-.256-18.032-1.614-26.176-4.022a69.335 69.335 0 014.113-8.267c6.05-10.278 13.87-16.642 22.063-17.958zm0 36.785v5.66h-31.1a93.143 93.143 0 012.649-10.088c8.871 2.665 18.438 4.155 28.45 4.428zm-41.7-18.711l.016-.017c.38-.372.77-.736 1.159-1.1l.09-.083c.365-.34.746-.679 1.126-1.018a64.74 64.74 0 0114.88-9.856l.082-.041c.455-.216.919-.43 1.366-.63l.24-.107a40.61 40.61 0 011.233-.53c.066-.024.132-.058.198-.082l.141-.058c.439-.182.803-.323 1.15-.464.092-.033.174-.066.265-.099l.033-.008c-2.888 2.995-5.569 6.579-7.977 10.675a74.89 74.89 0 00-4.684 9.484c-3.749-1.432-7.258-3.095-10.427-4.957a68.27 68.27 0 011.109-1.11zM7.432 67.892c.017-.323.042-.638.058-.96l.05-.621c.025-.314.05-.62.083-.927.016-.207.041-.414.066-.62.033-.315.066-.63.107-.944l.017-.157.05-.43c.041-.34.09-.68.14-1.018l.025-.199c.017-.1.025-.199.042-.29.082-.538.165-1.026.248-1.498l.008-.04c.083-.464.174-.944.273-1.44.017-.092.042-.183.058-.274l.05-.223c.066-.331.14-.654.215-.977.033-.132.066-.273.1-.405l.04-.166c.075-.298.141-.596.216-.894.05-.198.1-.397.157-.595.074-.29.157-.58.232-.87.058-.198.107-.397.165-.595.083-.29.174-.588.265-.877l.05-.166.124-.397c.1-.315.198-.629.306-.944l.066-.206c.033-.091.058-.182.091-.273.166-.497.331-.952.489-1.39l.05-.125c.156-.439.322-.86.48-1.266.04-.1.074-.19.115-.298l.075-.19c.115-.298.24-.596.364-.886.057-.14.124-.281.19-.438l.05-.116c.115-.273.231-.538.355-.811.083-.19.174-.38.257-.563.124-.265.24-.53.364-.786.091-.182.174-.373.265-.555l.397-.794.075-.149c.066-.124.124-.257.19-.38l.447-.845.1-.182c.049-.09.098-.182.14-.265.248-.455.48-.869.711-1.266l.1-.174c.223-.388.438-.744.645-1.092.058-.091.116-.182.174-.281l.108-.174c.165-.265.322-.53.488-.786.083-.133.165-.257.248-.39l.083-.123.472-.72c.116-.174.231-.348.347-.513.157-.232.323-.464.488-.696.116-.173.24-.339.356-.504.166-.232.34-.472.513-.704l.091-.124c.091-.116.174-.24.265-.356.19-.248.38-.505.58-.753l.132-.174c.058-.074.116-.157.182-.231.05-.067.1-.133.149-.19.331.198.637.388.935.562 3.542 2.085 7.456 3.947 11.635 5.536-1.315 4.08-2.4 8.392-3.227 12.852a21.468 21.468 0 00-9.914 5.652 21.395 21.395 0 00-6.09 12.157h-7.2c0-.108.024-.463.024-.463zm13.862 43.744c-.05-.066-.1-.124-.15-.19-.065-.075-.123-.158-.19-.249l-.124-.165-.57-.745c-.083-.108-.158-.215-.24-.323l-.116-.165c-.174-.232-.34-.464-.514-.704-.124-.165-.24-.339-.364-.505-.165-.231-.323-.463-.488-.695l-.348-.521-.471-.72-.058-.091c-.091-.141-.182-.273-.273-.414a24.188 24.188 0 01-.489-.786l-.107-.174c-.058-.099-.116-.19-.174-.289-.207-.34-.422-.704-.645-1.093l-.1-.165c-.231-.406-.463-.82-.711-1.266-.05-.091-.1-.182-.15-.282l-.09-.174c-.15-.281-.298-.562-.447-.844a7.44 7.44 0 01-.182-.364l-.083-.165-.397-.795a17.01 17.01 0 01-.265-.554c-.124-.265-.248-.521-.373-.786-.082-.19-.173-.373-.256-.563-.124-.273-.24-.538-.356-.811l-.058-.14c-.058-.141-.116-.274-.174-.415a39.816 39.816 0 01-.364-.893l-.083-.207c-.033-.091-.074-.182-.107-.273a44.597 44.597 0 01-.48-1.266l-.041-.116c-.158-.439-.323-.894-.489-1.39a3.69 3.69 0 01-.09-.282l-.067-.19c-.107-.315-.207-.63-.306-.944l-.124-.397-.05-.157c-.09-.29-.174-.58-.265-.877a19.941 19.941 0 01-.165-.588c-.083-.29-.157-.58-.232-.869-.05-.198-.107-.397-.157-.596-.075-.298-.15-.596-.215-.893l-.033-.133-.1-.438c-.074-.323-.14-.654-.215-.985l-.041-.199c-.025-.1-.042-.198-.066-.298-.1-.496-.19-.985-.282-1.448l-.008-.041c-.083-.472-.166-.96-.248-1.498-.017-.1-.025-.19-.042-.29l-.025-.198a40.09 40.09 0 01-.14-1.018c-.017-.141-.033-.282-.05-.414l-.016-.174a36.532 36.532 0 01-.166-1.564c-.033-.306-.058-.62-.083-.927l-.05-.62a35.21 35.21 0 01-.057-.96s-.025-.356-.025-.456h7.2a21.395 21.395 0 006.09 12.157 21.427 21.427 0 009.914 5.652c.828 4.46 1.92 8.772 3.253 12.852-4.18 1.589-8.085 3.451-11.636 5.536a12.36 12.36 0 00-.976.555zm27.185 20.068a72.44 72.44 0 01-1.15-.464l-.174-.074c-.058-.025-.108-.041-.166-.066a48.16 48.16 0 01-1.233-.53l-.24-.107c-.455-.207-.919-.414-1.374-.638l-.074-.033a64.658 64.658 0 01-14.863-9.839l-.025-.025a49.472 49.472 0 01-1.191-1.076l-.017-.016c-.389-.365-.786-.737-1.159-1.101l-.016-.017a70.88 70.88 0 01-1.1-1.1c3.177-1.854 6.686-3.517 10.426-4.957a77.097 77.097 0 004.684 9.483c2.408 4.097 5.09 7.68 7.978 10.676 0 0-.207-.075-.306-.116zm20.01 4.088c-8.193-1.316-16.013-7.68-22.054-17.958a69.295 69.295 0 01-4.113-8.267c8.135-2.408 16.94-3.757 26.175-4.022v30.247h-.008zm0-36.776c-10.022.265-19.588 1.754-28.451 4.419a91.286 91.286 0 01-2.648-10.088h31.099v5.669zm0-11.048H35.925c-2.218 0-4.336-.447-6.256-1.258-.15-.058-.29-.124-.439-.19-.025-.008-.05-.025-.066-.033-.116-.058-.232-.108-.348-.166a45.963 45.963 0 00-.1-.05c-.107-.057-.223-.115-.33-.173-.025-.017-.058-.025-.083-.042a25.683 25.683 0 01-.81-.463c-.026-.017-.05-.033-.075-.041a7.01 7.01 0 01-.323-.207c-.033-.017-.058-.042-.091-.058-.108-.075-.224-.15-.331-.224-.017-.008-.033-.025-.05-.033a16.134 16.134 0 01-.753-.563c-.025-.016-.041-.033-.066-.05l-.298-.248c-.025-.016-.041-.033-.066-.057-.116-.1-.224-.199-.34-.298l-.008-.009c-.232-.215-.463-.43-.687-.662l-.05-.05c-.099-.099-.19-.198-.289-.297l-.041-.042a14.545 14.545 0 01-.919-1.092c-.008-.017-.017-.025-.033-.041-.091-.124-.182-.24-.273-.364 0-.009-.008-.009-.008-.017a17.337 17.337 0 01-.803-1.225c-.008-.008-.008-.016-.017-.025a16.61 16.61 0 01-.893-1.754 15.846 15.846 0 01-1.043-3.36 16.387 16.387 0 01-.298-3.078v-.381c0-2.284.48-4.46 1.34-6.43v-.008a16.61 16.61 0 01.894-1.755c.009-.008.009-.016.017-.025.248-.422.513-.827.803-1.224 0-.009.008-.009.008-.017.09-.124.182-.248.273-.364.008-.017.017-.025.033-.041.29-.381.596-.745.919-1.093l.041-.041c.091-.1.19-.199.29-.298l.05-.05c.223-.223.454-.447.686-.662 0 0 .009 0 .009-.008a12.41 12.41 0 01.405-.356l.298-.248c.025-.017.041-.033.066-.05.248-.198.497-.38.753-.563.017-.008.033-.024.05-.033.107-.074.215-.149.33-.223.034-.017.059-.041.092-.058.108-.066.215-.14.323-.207a.342.342 0 01.074-.041c.265-.166.538-.315.811-.464.025-.016.058-.025.083-.041.107-.058.223-.116.33-.174l.1-.05c.116-.057.232-.115.348-.165.025-.008.05-.025.066-.033a16.053 16.053 0 016.695-1.457h71.657c2.392 0 4.659.522 6.695 1.457.025.008.05.025.066.033.116.058.232.108.348.166l.099.05c.108.057.224.115.331.173.025.017.058.025.083.041.273.15.546.306.811.464.025.016.05.033.074.041.108.066.216.133.323.207.033.017.058.041.091.058.108.074.224.149.331.223.017.009.033.025.05.033.256.183.505.373.753.563.025.017.041.033.066.05l.298.248a.428.428 0 01.066.058c.116.1.224.199.34.298 0 0 .008 0 .008.008.232.215.463.43.687.662l.049.05c.1.1.191.199.29.298l.041.041c.323.348.629.712.919 1.093.008.016.017.024.033.041.091.124.182.24.273.364 0 .008.008.008.008.017.282.397.555.802.803 1.224.008.009.008.017.017.025.331.563.629 1.15.894 1.755.86 1.97 1.34 4.146 1.34 6.43v.38c0 1.051-.099 2.078-.298 3.079a15.995 15.995 0 01-1.042 3.36v.008a16.668 16.668 0 01-.894 1.754c-.009.009-.009.017-.017.025-.248.422-.513.828-.803 1.225 0 .008-.008.008-.008.017a13.871 13.871 0 01-.306.405 14.598 14.598 0 01-.96 1.134c-.091.1-.19.198-.29.298l-.049.05c-.224.223-.455.446-.687.661l-.008.009c-.108.099-.224.198-.34.298-.025.016-.041.033-.066.058l-.298.248c-.025.016-.041.033-.066.05-.248.198-.497.38-.753.562-.017.008-.033.025-.05.033-.107.075-.215.15-.331.224-.033.016-.058.041-.091.058-.107.066-.215.14-.323.207a.311.311 0 01-.074.04c-.265.166-.538.315-.811.464-.025.017-.058.025-.083.042-.107.058-.223.116-.331.174l-.099.05c-.116.057-.232.115-.348.165-.024.008-.041.025-.066.033a16.052 16.052 0 01-6.695 1.456H68.489v-.008zm37.637 5.379a93.372 93.372 0 01-2.648 10.088c-8.863-2.665-18.43-4.154-28.451-4.42v-5.668h31.099zm-31.1 42.445v-30.247c9.236.257 18.033 1.614 26.176 4.022a69.34 69.34 0 01-4.113 8.267c-6.05 10.278-13.87 16.642-22.063 17.958zm41.709-18.074l-.025.025c-.381.373-.778.745-1.175 1.117-.397.364-.794.729-1.183 1.076l-.042.033a64.547 64.547 0 01-14.862 9.832l-.083.041c-.464.215-.919.43-1.374.637l-.24.108a51.912 51.912 0 01-1.572.67c-.439.182-.803.323-1.15.463l-.299.116c2.889-2.995 5.57-6.579 7.978-10.675a74.976 74.976 0 004.684-9.484c3.749 1.432 7.258 3.095 10.427 4.957-.348.356-.72.728-1.084 1.084zm19.356-42.378c-.016.322-.041.637-.058.96l-.049.62c-.025.315-.05.62-.083.927-.017.207-.041.414-.058.62-.033.315-.066.63-.108.944l-.016.174-.05.414c-.041.339-.091.678-.14 1.018l-.033.206c-.017.1-.025.19-.042.29a70.976 70.976 0 01-.248 1.498l-.008.041a58.63 58.63 0 01-.274 1.44c-.016.1-.041.199-.066.298l-.041.199c-.066.33-.141.654-.215.976-.033.15-.066.29-.1.439l-.033.14c-.074.299-.14.596-.215.894-.049.199-.099.398-.157.596-.075.29-.157.58-.232.87-.058.198-.107.396-.165.595-.083.29-.174.588-.265.877l-.041.15-.125.413c-.099.314-.198.629-.306.943l-.066.207c-.033.091-.058.182-.091.273-.174.497-.331.952-.488 1.39l-.042.116c-.157.422-.314.853-.48 1.267-.041.099-.074.198-.116.297l-.074.19c-.116.299-.24.597-.364.886-.058.141-.116.282-.182.422l-.058.133c-.116.273-.232.538-.356.81-.083.191-.174.381-.256.563-.125.265-.24.522-.365.787-.091.182-.173.372-.264.554l-.398.795-.091.173c-.058.116-.124.24-.182.356l-.447.844-.099.182c-.05.091-.099.182-.141.273-.248.456-.48.869-.703 1.267l-.108.173c-.223.389-.438.745-.645 1.084-.05.083-.108.174-.157.257l-.124.199c-.166.264-.323.521-.489.786a6.068 6.068 0 01-.256.389l-.075.116-.471.72-.348.521c-.157.232-.323.463-.48.695-.116.174-.24.339-.364.513-.166.232-.339.464-.513.704l-.091.124c-.091.116-.174.24-.265.356-.19.248-.372.496-.571.744l-.132.174c-.058.083-.125.157-.182.24-.05.066-.1.132-.149.19-.323-.198-.629-.38-.936-.562-3.541-2.086-7.456-3.948-11.635-5.537a100.544 100.544 0 003.252-12.851 21.465 21.465 0 009.914-5.653 21.397 21.397 0 006.091-12.156h7.2c-.058.09-.075.447-.075.447zm-7.175-6.985a21.39 21.39 0 00-6.09-12.157 21.428 21.428 0 00-9.914-5.652 100.58 100.58 0 00-3.253-12.852c4.18-1.589 8.086-3.45 11.636-5.536.306-.182.612-.364.935-.563.05.067.099.125.149.19.066.083.132.174.207.265l.116.15c.19.248.38.488.571.744.091.116.173.232.264.356l.1.133c.174.231.339.463.513.695.124.165.24.339.364.513.165.231.323.463.48.695.116.174.232.347.356.521l.471.72.067.1c.091.14.182.273.264.413.166.257.331.522.489.786l.107.174c.058.1.116.19.174.29.207.34.414.695.646 1.084l.107.182c.232.397.464.811.704 1.258l.149.273.099.182.447.844.198.397.067.141c.132.265.264.521.388.786.092.182.183.373.265.563.124.265.249.521.364.786.083.19.174.38.257.563.124.265.24.538.356.81l.058.125c.058.14.124.281.182.422.124.29.24.588.364.886l.083.198c.041.1.074.19.116.29.165.413.322.844.48 1.266l.041.116a43.944 43.944 0 01.579 1.671l.066.19c.108.315.207.63.307.944.041.14.082.282.132.422l.041.14c.091.29.174.58.257.878.058.199.116.397.165.596.083.29.158.58.232.869.05.198.108.397.157.596.075.298.149.596.216.894l.041.165.099.405c.075.323.141.654.215.977l.05.223c.017.091.041.182.058.273.099.497.19.977.281 1.449l.009.041c.082.472.165.96.248 1.498.016.091.025.182.041.273l.033.215c.05.34.1.679.141 1.018l.05.43.016.158c.042.314.075.629.108.943.025.207.041.414.066.62.033.307.058.621.083.928l.049.62c.025.315.042.637.058.96 0 0 .025.356.025.455h-7.2v-.008z" fill="#077C75"/></svg>