<svg xmlns="http://www.w3.org/2000/svg" xmlns:xlink="http://www.w3.org/1999/xlink"><symbol id="1"><path d="M37.214 60.637L24.286 48.44l4.272-4.529c1.48-1.568 2.904-2.473 4.273-2.714 1.363-.247 2.625.177 3.785 1.271.633.598 1.04 1.288 1.218 2.072.172.778.097 1.563-.226 2.355.792-.506 1.617-.712 2.478-.616.866.09 1.663.478 2.391 1.165 1.243 1.173 1.81 2.458 1.701 3.854-.109 1.396-.85 2.834-2.223 4.313l-4.741 5.026zm-3.117-7.975l3.49 3.292 2.153-2.282c.592-.627.904-1.255.938-1.883.033-.64-.214-1.209-.74-1.706-1.184-1.117-2.363-1.071-3.537.137l-2.304 2.442zm-1.882-1.776l1.86-1.971c1.244-1.366 1.342-2.543.294-3.532-.586-.553-1.168-.778-1.746-.674-.58.091-1.215.504-1.907 1.238l-1.76 1.865 3.26 3.074zm21.661-6.315c-.328-.139-.672-.365-1.032-.68-.042 1.28-.587 2.358-1.635 3.237-.99.831-2.054 1.235-3.19 1.211-1.13-.03-2.06-.48-2.793-1.353-.9-1.073-1.194-2.228-.884-3.466.317-1.243 1.224-2.498 2.72-3.765l1.244-1.043-.486-.58c-.392-.468-.828-.74-1.306-.816-.473-.082-.968.094-1.485.528-.455.382-.722.792-.8 1.23-.073.433.05.84.37 1.22l-2.703 2.267c-.492-.586-.766-1.28-.823-2.082-.057-.802.127-1.62.553-2.456.42-.84 1.041-1.607 1.864-2.297 1.247-1.047 2.5-1.56 3.757-1.543 1.259.006 2.364.576 3.316 1.71l3.68 4.386c.812.955 1.555 1.569 2.23 1.842l.134.159-2.73 2.291zm-3.812-.004c.4-.335.694-.73.884-1.188.185-.463.233-.912.144-1.348l-1.46-1.739-1.01.847c-1.352 1.136-1.68 2.207-.983 3.216l.124.167c.283.336.634.514 1.054.534.42.019.836-.144 1.247-.49zm10.094-20.654l7.334 10.985-2.934 1.959-5.748-8.61-2.589 1.73 2.082 3.512c1.091 1.884 1.614 3.438 1.57 4.66-.044 1.224-.648 2.24-1.813 3.046l-.994.664-1.624-2.365.346-.275c.5-.393.678-.962.533-1.707-.145-.744-.654-1.838-1.529-3.28l-2.908-4.795 8.274-5.524zm12.926 7.941l-3.1 1.71-6.38-11.565 3.1-1.71 6.38 11.565zM61.77 19.106c-.255-.463-.312-.929-.17-1.397.148-.472.49-.856 1.023-1.15.528-.292 1.03-.374 1.51-.248.478.127.845.422 1.1.885.26.47.312.943.156 1.42-.148.472-.482.851-1.002 1.138-.52.287-1.024.37-1.51.247-.478-.126-.847-.425-1.106-.895zm16.168.048c-.191-.422-.48-.684-.866-.786-.382-.113-.829-.053-1.34.18-.526.238-.905.545-1.138.918-.228.363-.251.745-.07 1.145l-3.212 1.459c-.495-1.09-.445-2.18.15-3.273.594-1.092 1.595-1.958 3.003-2.597 1.549-.703 2.902-.951 4.06-.744 1.165.204 2.001.865 2.51 1.984.242.534.303 1.1.182 1.7-.117.59-.407 1.15-.872 1.683 1.59-.14 2.698.478 3.323 1.856.502 1.104.428 2.202-.221 3.292-.645 1.08-1.753 1.975-3.324 2.689-1.46.663-2.815.867-4.066.612-1.25-.254-2.138-.96-2.663-2.115l3.212-1.459c.186.408.517.655.994.742.478.087 1.01-.002 1.595-.268.57-.259.954-.594 1.152-1.006.197-.411.198-.832.003-1.262-.239-.526-.56-.83-.965-.915-.408-.092-.916 0-1.524.276l-1.745.793-.949-2.09 1.856-.843c.987-.484 1.292-1.14.915-1.97zm15.37 4.14c-.256-.249-.494-.585-.714-1.009-.506 1.175-1.406 1.981-2.702 2.418-1.226.413-2.364.402-3.412-.035-1.042-.439-1.744-1.198-2.108-2.278-.447-1.326-.3-2.51.44-3.549.748-1.042 2.05-1.88 3.905-2.515l1.539-.518-.242-.717c-.195-.579-.501-.99-.919-1.236-.41-.249-.935-.265-1.575-.05-.563.19-.961.475-1.194.854-.225.377-.258.8-.1 1.27l-3.343 1.127c-.244-.725-.247-1.47-.007-2.239.239-.767.709-1.462 1.41-2.085.697-.63 1.555-1.117 2.573-1.46 1.542-.52 2.896-.543 4.06-.068 1.17.465 1.992 1.399 2.465 2.802l1.829 5.425c.408 1.185.877 2.028 1.406 2.528l.066.197-3.377 1.138zm-3.549-1.393a3.08 3.08 0 001.256-.784c.34-.364.55-.765.625-1.203l-.725-2.151-1.25.42c-1.673.565-2.369 1.444-2.087 2.637l.055.2c.14.417.403.71.787.882.384.17.83.17 1.34-.001z"/></symbol><symbol id="2"><path d="M29.547 48.523l2.504-2.673 8.98 8.412c.826.773 1.384 1.642 1.675 2.605.29.952.296 1.922.017 2.91-.278.988-.81 1.9-1.594 2.738-1.285 1.372-2.634 2.116-4.047 2.231-1.418.11-2.766-.433-4.043-1.63l2.52-2.69c.636.595 1.23.901 1.783.917.553.017 1.1-.263 1.64-.84.478-.51.684-1.08.617-1.712-.067-.631-.424-1.25-1.071-1.856l-8.98-8.412zm17.976 7.017L36.148 41.882l4.784-3.985c1.657-1.38 3.18-2.108 4.567-2.184 1.383-.081 2.585.49 3.606 1.716.557.669.877 1.403.96 2.202.078.793-.09 1.564-.505 2.312.846-.409 1.69-.514 2.534-.315.849.193 1.594.674 2.234 1.443 1.094 1.313 1.503 2.656 1.228 4.03-.275 1.373-1.183 2.711-2.724 4.016l-5.309 4.421zm-2.139-8.29l3.07 3.685 2.411-2.008c.663-.552 1.048-1.138 1.157-1.758.11-.631-.067-1.225-.531-1.782-1.042-1.25-2.218-1.346-3.527-.286l-2.58 2.148zm-1.656-1.99l2.082-1.734c1.399-1.207 1.637-2.364.715-3.47-.515-.62-1.067-.913-1.653-.88-.586.022-1.266.356-2.042 1.002l-1.97 1.64 2.868 3.443zm17.549-4.098l6.53-4.222 1.597 2.47-9.605 6.211-9.65-14.925 3.075-1.988 8.053 12.454zm18.825-12.424l-1.302.556 1.914 4.479-3.244 1.386-5.19-12.145 3.244-1.386 1.952 4.568 1.156-.494.697-5.7 4.097-1.752-1.503 7.48 7.064 4.507-4.322 1.847-4.563-3.346zm7.81-5.21c-.371-1.257-.46-2.448-.267-3.575.193-1.126.663-2.092 1.409-2.898.754-.808 1.732-1.39 2.934-1.745 1.709-.506 3.257-.395 4.643.333 1.393.725 2.418 1.967 3.073 3.725l.28.86c.574 1.942.493 3.664-.243 5.163-.74 1.491-2.022 2.507-3.848 3.046-1.826.54-3.459.386-4.897-.462-1.43-.85-2.444-2.282-3.039-4.295l-.045-.152zm3.456-.754c.355 1.202.854 2.056 1.495 2.562.64.498 1.381.623 2.224.374.82-.243 1.367-.744 1.643-1.504.274-.768.206-1.843-.202-3.225-.348-1.178-.848-2.023-1.5-2.535s-1.396-.644-2.23-.397c-.828.244-1.372.757-1.633 1.539-.264.774-.196 1.835.203 3.186zm21.107-11.697l2.276 13.01-3.475.608-1.784-10.197-3.066.537.486 4.054c.238 2.164.09 3.797-.444 4.898-.535 1.101-1.497 1.786-2.888 2.054l-1.178.206-.531-2.82.427-.11c.617-.158 1.009-.607 1.177-1.347.168-.74.143-1.946-.075-3.618l-.725-5.561 9.8-1.714zm4.06 5.993c-.076-1.308.109-2.488.553-3.541.444-1.053 1.121-1.887 2.031-2.502.918-.616 2.003-.96 3.254-1.033 1.78-.103 3.261.358 4.446 1.381 1.192 1.024 1.907 2.466 2.145 4.327l.077.9c.117 2.023-.353 3.68-1.411 4.973-1.059 1.284-2.539 1.981-4.44 2.091-1.901.11-3.456-.41-4.664-1.564-1.2-1.153-1.86-2.777-1.982-4.873l-.009-.159zm3.537.052c.072 1.251.363 2.196.873 2.835.51.63 1.203.92 2.08.87.853-.05 1.501-.413 1.942-1.09.442-.687.621-1.749.537-3.187-.071-1.226-.366-2.163-.884-2.81-.518-.646-1.212-.944-2.082-.894-.861.05-1.507.426-1.939 1.127-.433.694-.609 1.743-.527 3.149zm22.99 6.604l-3.534-.205.293-5.07-4.375-.253-.293 5.07-3.522-.204.764-13.186 3.522.204-.307 5.289 4.375.253.307-5.289 3.534.205-.764 13.186zm8.719-3.616l-1.395-.244-.839 4.798-3.475-.608 2.276-13.01 3.475.608-.856 4.893 1.238.217 3.694-4.397 4.389.767-5.34 5.448 3.461 7.632-4.629-.81-1.999-5.294zm14.749 8.486c-.067-.35-.07-.762-.008-1.236-1.087.675-2.287.821-3.599.439-1.243-.362-2.169-1.022-2.78-1.98-.603-.956-.745-1.98-.426-3.074.391-1.344 1.188-2.23 2.39-2.66 1.209-.428 2.757-.37 4.642.17l1.558.454.212-.726c.171-.586.155-1.1-.047-1.54-.194-.438-.616-.751-1.264-.94-.571-.167-1.06-.16-1.468.017-.4.18-.669.508-.808.985l-3.387-.987c.214-.735.639-1.348 1.274-1.841.635-.493 1.418-.795 2.349-.905.933-.118 1.915-.027 2.946.274 1.563.455 2.686 1.21 3.37 2.266.695 1.05.835 2.286.42 3.708l-1.602 5.497c-.343 1.205-.44 2.164-.292 2.877l-.058.2-3.422-.998zm-2.114-3.172c.5.146.993.17 1.478.075.488-.104.889-.313 1.201-.63l.635-2.179-1.265-.369c-1.696-.494-2.769-.171-3.22.969l-.07.196a1.41 1.41 0 00.142 1.173c.217.36.583.615 1.099.765z"/></symbol><symbol id="3"><path d="M36.135 45.953l-3.736 3.96 10.77 10.161-2.513 2.664-10.77-10.161-3.686 3.906-2.157-2.035 9.935-10.53 2.157 2.035zM52.78 51.56c-1.483 1.244-3.075 1.804-4.773 1.679-1.693-.131-3.175-.954-4.446-2.469l-.22-.261c-.852-1.017-1.417-2.088-1.694-3.216-.282-1.134-.245-2.216.11-3.248.358-1.043.998-1.952 1.92-2.726 1.384-1.162 2.838-1.638 4.362-1.43 1.53.204 2.968 1.106 4.312 2.708l.926 1.104-6.443 5.406c.642.588 1.349.898 2.12.93.777.028 1.502-.24 2.176-.805 1.04-.874 1.538-1.934 1.49-3.18l2.576.373c.077.913-.096 1.823-.515 2.727-.426.899-1.059 1.701-1.9 2.407zm-7.276-8.045c-.536.45-.82.997-.854 1.64-.027.64.195 1.335.667 2.087l3.759-3.155-.18-.215c-.516-.588-1.065-.913-1.648-.976-.59-.069-1.17.137-1.744.619zM64.279 35c1.13 1.692 1.65 3.306 1.56 4.843-.087 1.526-.783 2.725-2.09 3.597-1.11.741-2.264.954-3.463.64l3.457 5.177-2.934 1.959-10.153-15.209 2.72-1.816.82 1.008c.142-1.327.785-2.372 1.928-3.136 1.354-.904 2.74-1.106 4.16-.606 1.42.5 2.718 1.63 3.893 3.39l.102.153zm-3.076 1.745c-.683-1.022-1.392-1.688-2.128-2-.73-.315-1.439-.242-2.13.219-.92.614-1.318 1.389-1.193 2.323l3.003 4.498c.842.484 1.723.42 2.644-.195 1.4-.935 1.335-2.55-.197-4.845zm13.007-4.398l-.917-9.639 3.96-1.96 5.86 11.837-3.162 1.565-3.596-7.264.763 8.667-2.122 1.05-6.316-5.768 3.537 7.144-3.162 1.565-5.86-11.837 3.928-1.944 7.087 6.584zm8.393-6.765c-.423-1.24-.562-2.427-.416-3.56.147-1.133.576-2.118 1.288-2.955.72-.838 1.673-1.46 2.859-1.865 1.686-.576 3.237-.529 4.652.14 1.423.667 2.498 1.865 3.226 3.594l.315.847c.655 1.918.645 3.641-.029 5.17-.676 1.52-1.915 2.588-3.717 3.203-1.803.615-3.44.529-4.913-.258-1.464-.79-2.536-2.179-3.214-4.166l-.051-.15zm3.421-.897c.405 1.186.939 2.019 1.6 2.498.66.471 1.406.565 2.238.281.809-.276 1.335-.8 1.58-1.57.24-.78.129-1.85-.336-3.214-.397-1.163-.932-1.986-1.605-2.47-.672-.485-1.42-.586-2.245-.305-.816.279-1.339.814-1.567 1.606-.231.784-.12 1.842.335 3.174zm18.206-4.932l-6.69 1.57-.65-2.77 6.691-1.569.649 2.77zm8.974 2.127c.644-.09 1.144-.34 1.497-.752.354-.41.497-.911.431-1.502l3.277-.457a4.562 4.562 0 01-.385 2.543c-.373.8-.946 1.463-1.719 1.99-.766.518-1.648.847-2.648.986-1.87.261-3.427-.125-4.673-1.16-1.246-1.042-2.016-2.61-2.308-4.706l-.032-.23c-.282-2.015.03-3.697.934-5.048.905-1.35 2.292-2.156 4.162-2.417 1.636-.229 3.011.056 4.125.854 1.12.788 1.797 1.955 2.029 3.5l-3.276.458c-.111-.675-.397-1.194-.859-1.557-.462-.37-1.024-.51-1.685-.418-.814.114-1.389.498-1.725 1.153-.329.646-.4 1.633-.215 2.963l.051.363c.188 1.346.528 2.285 1.022 2.816.493.53 1.158.738 1.997.62zm12.725-3.502l2.154-8.295 3.782-.132-4.777 15.434-.268.706c-.729 1.752-2.001 2.659-3.814 2.722a5.55 5.55 0 01-1.57-.178l-.093-2.671.537-.007c.667-.023 1.16-.142 1.478-.357.326-.215.575-.561.746-1.04l.377-1.1-5.084-13.075 3.794-.132 2.738 8.125zm15.537 1.218l4.242-8.704 4.402.392-1.17 13.156-3.514-.313.718-8.073-3.868 7.793-2.358-.21-2.383-8.214-.706 7.94-3.514-.313 1.17-13.156 4.365.388 2.616 9.314zm15.951 1.681l-1.382-.308-1.058 4.754-3.444-.766 2.87-12.893 3.443.767-1.079 4.85 1.227.273 3.892-4.224 4.349.968-5.584 5.198 3.107 7.782-4.587-1.021-1.754-5.38zm15.063 9.403c-.05-.353-.033-.765.052-1.235-1.119.621-2.324.708-3.616.262-1.223-.423-2.117-1.127-2.68-2.114-.555-.984-.647-2.014-.275-3.091.457-1.323 1.297-2.17 2.518-2.54 1.229-.367 2.772-.235 4.628.398l1.535.53.247-.715c.199-.577.209-1.09.028-1.54-.173-.447-.578-.781-1.217-1.002-.561-.194-1.05-.212-1.466-.054-.408.16-.694.475-.856.944l-3.334-1.152c.25-.723.704-1.315 1.363-1.777.658-.46 1.455-.724 2.39-.788.938-.072 1.914.067 2.93.418 1.538.531 2.623 1.341 3.254 2.429.642 1.083.721 2.324.238 3.724l-1.87 5.411c-.401 1.187-.546 2.14-.432 2.86l-.068.196-3.369-1.164zm-1.957-3.272c.493.17.984.22 1.473.147.493-.08.903-.269 1.23-.569l.742-2.146-1.246-.43c-1.669-.577-2.757-.307-3.263.81l-.08.191c-.143.416-.115.809.084 1.179s.553.643 1.06.818z"/></symbol><symbol id="4"><path d="M159.924 177.554c1.728.832 2.868 2.044 3.42 3.636.554 1.585.449 3.346-.317 5.283-.838 2.119-2.209 3.507-4.114 4.163-1.909.645-4.108.475-6.598-.509l-1.01-.4c-1.59-.628-2.879-1.462-3.869-2.5-.989-1.039-1.6-2.204-1.834-3.495-.238-1.302-.084-2.642.46-4.019.754-1.907 1.873-3.241 3.355-4.003 1.483-.761 3.183-.868 5.101-.319l-1.346 3.405c-1.1-.338-1.99-.345-2.67-.019-.685.316-1.234.996-1.647 2.04-.449 1.135-.377 2.148.216 3.039.588.88 1.735 1.666 3.439 2.358l1.249.493c1.786.706 3.197.954 4.235.743 1.04-.219 1.791-.911 2.252-2.076.416-1.052.487-1.93.214-2.633-.278-.714-.906-1.307-1.882-1.781l1.346-3.406zm9.439-4.778c-.901 1.714-2.162 2.835-3.782 3.362-1.616.52-3.299.32-5.049-.6l-.303-.159c-1.174-.618-2.102-1.396-2.786-2.335-.69-.942-1.066-1.958-1.127-3.048-.065-1.1.183-2.184.744-3.25.841-1.599 2.006-2.59 3.495-2.975 1.493-.391 3.166-.1 5.017.873l1.275.671-3.916 7.444c.817.3 1.588.32 2.314.058.73-.269 1.3-.792 1.709-1.57.633-1.203.691-2.372.176-3.508l2.524-.63c.417.817.602 1.723.556 2.72-.053.992-.335 1.975-.847 2.947zm-9.781-4.689c-.326.619-.382 1.233-.169 1.842.217.601.686 1.161 1.407 1.678l2.284-4.343-.248-.131c-.699-.349-1.331-.442-1.895-.279-.571.159-1.031.57-1.379 1.233zm14.111-15.179c1.698 1.121 2.804 2.407 3.318 3.858.513 1.44.336 2.816-.529 4.126-.735 1.114-1.717 1.759-2.944 1.934l5.196 3.429-1.943 2.944-15.262-10.073 1.803-2.73 1.147.611c-.385-1.278-.199-2.491.559-3.639.896-1.359 2.096-2.083 3.599-2.173 1.503-.091 3.137.447 4.903 1.612l.153.101zm-2.158 2.803c-1.025-.677-1.938-1.015-2.737-1.016-.794-.008-1.42.335-1.877 1.027-.61.924-.676 1.792-.198 2.605l4.513 2.979c.964.12 1.751-.282 2.361-1.206.928-1.406.241-2.869-2.062-4.389zm7.368-15.58l-2.658 3.298 8.08 6.51-2.221 2.757-8.08-6.51-2.611 3.241-2.206-1.777 7.491-9.296 2.205 1.777zm5.541-9.897l2.472-2.517 9.424 9.255-2.472 2.517-5.818-5.714 2.721 8.867-2.48 2.526-9.424-9.256 2.481-2.525 5.809 5.705-2.713-8.858zm9.087.306c-1.332-1.654-2.055-3.24-2.17-4.757-.108-1.522.431-2.761 1.616-3.715a3.69 3.69 0 011.487-.743l-3.545-4.402 2.747-2.212 3.553 4.411c.24-.507.598-.951 1.073-1.334 1.191-.96 2.516-1.222 3.974-.787 1.459.423 2.911 1.532 4.356 3.326 1.25 1.552 1.904 3.058 1.961 4.517.052 1.453-.509 2.651-1.681 3.595-.488.394-1 .66-1.536.799l3.246 4.031-2.747 2.212-3.239-4.021a3.99 3.99 0 01-1.077 1.29c-1.109.893-2.334 1.195-3.674.906-1.341-.289-2.625-1.131-3.852-2.525l-.492-.591zm10.173-8.193c-.827-1.026-1.615-1.687-2.365-1.982-.755-.302-1.414-.225-1.978.229a3.605 3.605 0 00-.526.534l4.923 6.113c.208-.105.423-.247.645-.425 1.077-.868 1.002-2.155-.226-3.862l-.473-.607zm-7.265 6.18c1.527 1.895 2.87 2.376 4.03 1.441.24-.194.421-.365.541-.514l-4.923-6.113a3.45 3.45 0 00-.614.385c-.565.454-.782 1.073-.652 1.857.124.777.664 1.759 1.618 2.944zm18.542-6.075l-2.941 1.971-7.351-10.973 2.941-1.971 7.351 10.973zm-12.367-11.727c-.294-.439-.391-.898-.291-1.377.108-.483.415-.895.922-1.234.5-.336.994-.461 1.482-.376.488.085.879.347 1.173.786.299.446.391.913.277 1.401-.107.483-.407.89-.901 1.221-.493.331-.987.456-1.482.376-.488-.085-.881-.35-1.18-.797zm17.114 3.124l-1.234.695 2.39 4.244-3.073 1.731-6.482-11.508 3.074-1.731 2.438 4.328 1.095-.617.072-5.742 3.882-2.187-.68 7.598 7.513 3.713-4.095 2.306-4.9-2.83zm17.006-2.976c-.276-.226-.543-.54-.799-.943-.401 1.215-1.228 2.096-2.48 2.645-1.185.518-2.32.606-3.403.263-1.075-.346-1.841-1.042-2.298-2.085-.561-1.283-.519-2.474.128-3.574.654-1.104 1.877-2.052 3.671-2.846l1.487-.651-.303-.694c-.245-.559-.586-.943-1.024-1.151-.43-.211-.954-.181-1.573.089-.544.239-.916.557-1.115.955-.191.394-.188.819.012 1.274l-3.232 1.415c-.307-.701-.375-1.444-.203-2.23.171-.786.578-1.519 1.222-2.201.64-.689 1.452-1.248 2.436-1.68 1.491-.652 2.837-.793 4.039-.421 1.206.36 2.106 1.219 2.7 2.575l2.296 5.245c.51 1.145 1.05 1.943 1.621 2.395l.084.19-3.266 1.43zm-3.656-1.078a3.082 3.082 0 001.182-.891c.308-.392.481-.81.518-1.253l-.911-2.08-1.207.529c-1.618.708-2.234 1.644-1.849 2.808l.072.195c.176.403.463.673.86.81.398.136.843.097 1.335-.118zm15.698-14.247l-4.023 1.327 3.25 9.854-3.362 1.109-3.25-9.854-3.953 1.304-.887-2.69 11.338-3.74.887 2.69zm9.921 1.246c-.342-1.997-.145-3.686.592-5.068.746-1.383 1.924-2.212 3.536-2.489 1.428-.245 2.623.054 3.585.896l-.066-1.252 3.152-.54 2.159 12.584c.196 1.139.105 2.174-.272 3.106-.369.93-.985 1.696-1.847 2.298-.863.603-1.924 1.012-3.183 1.228a7.168 7.168 0 01-2.891-.099c-.971-.221-1.74-.593-2.309-1.115l1.177-2.381c1.033.822 2.167 1.127 3.402.915.922-.159 1.597-.53 2.025-1.116.43-.577.567-1.319.411-2.225l-.12-.698c-.646 1.044-1.623 1.678-2.931 1.902-1.564.269-2.935-.124-4.115-1.176-1.173-1.062-1.933-2.604-2.28-4.625l-.025-.144zm3.521-.343c.202 1.179.598 2.064 1.186 2.657.588.584 1.295.806 2.121.664 1.058-.181 1.748-.709 2.069-1.581l-.939-5.474c-.601-.715-1.419-.983-2.454-.805-.834.143-1.434.596-1.798 1.36-.356.764-.418 1.823-.185 3.178zm14.947 4.434l-3.523.341-1.276-13.146 3.524-.342 1.275 13.147zm-5.335-16.187c-.051-.526.081-.976.396-1.35.323-.375.789-.592 1.396-.651.6-.058 1.094.066 1.483.371.39.306.61.722.661 1.248.052.535-.088.99-.419 1.365-.324.375-.781.591-1.372.649-.592.057-1.086-.067-1.483-.371-.39-.306-.611-.726-.662-1.26zm9.762 15.857l-.411-10.612-1.964.076-.1-2.586 1.964-.076-.043-1.122c-.058-1.48.321-2.643 1.135-3.489.822-.854 1.997-1.311 3.526-1.37.488-.02 1.089.039 1.803.174l.069 2.734a4.498 4.498 0 00-1.078-.068c-1.325.051-1.964.699-1.916 1.943l.041 1.061 2.623-.101.1 2.586-2.622.101.411 10.612-3.538.137zm13.135-16.553l-.088 3.246 2.257.062-.07 2.587-2.257-.062-.179 6.59c-.013.488.071.84.252 1.057.182.216.537.332 1.065.346.391.01.737-.008 1.04-.057l-.073 2.672a7.279 7.279 0 01-2.144.26c-2.473-.067-3.7-1.35-3.681-3.85l.193-7.113-1.928-.053.07-2.587 1.928.053.088-3.246 3.527.096zm15.22 4.453l-.159 1.473c1.128-.96 2.476-1.296 4.045-1.008 1.673.307 2.7 1.178 3.083 2.613 1.154-1.153 2.576-1.575 4.265-1.265 1.409.258 2.382.863 2.919 1.814.539.942.657 2.238.354 3.887l-1.522 8.297-3.482-.639 1.52-8.285c.135-.736.089-1.299-.137-1.688-.225-.397-.702-.662-1.43-.796-1.041-.19-1.852.173-2.435 1.092l-1.624 8.924-3.47-.637 1.518-8.273c.138-.752.089-1.323-.145-1.714-.235-.39-.708-.651-1.42-.782-.985-.18-1.772.097-2.362.833l-1.685 9.185-3.47-.637 2.383-12.99 3.254.596zm22.321 18.876c-.059-.352-.052-.764.021-1.236-1.103.649-2.305.767-3.609.354-1.233-.392-2.144-1.074-2.732-2.046-.58-.969-.698-1.997-.353-3.083.423-1.334 1.241-2.202 2.452-2.603 1.219-.398 2.765-.305 4.637.28l1.547.492.229-.722c.185-.582.181-1.095-.01-1.54-.184-.443-.598-.766-1.242-.97-.566-.18-1.055-.186-1.467-.018-.405.17-.682.493-.832.966l-3.362-1.067c.231-.73.67-1.333 1.317-1.81.647-.478 1.436-.761 2.369-.85.936-.095 1.916.02 2.94.344 1.551.492 2.656 1.274 3.315 2.346.669 1.066.78 2.305.332 3.716l-1.732 5.457c-.371 1.197-.491 2.154-.36 2.87l-.062.198-3.398-1.078zm-2.039-3.221c.497.157.989.194 1.477.11.49-.092.895-.293 1.215-.601l.687-2.164-1.257-.399c-1.683-.534-2.764-.236-3.242.893l-.074.194c-.133.419-.095.811.113 1.176.209.365.569.628 1.081.791zm10.343 6.318l-3.289-1.309 6.935-17.42 3.289 1.31-6.935 17.419zm5.995 2.629l-3.221-1.468 7.774-17.062 3.222 1.468-7.775 17.062zm18.447 10.336l-3.012-1.861 2.67-4.32-3.728-2.304-2.67 4.32-3.001-1.854 6.943-11.236 3.001 1.854-2.785 4.507 3.728 2.304 2.785-4.507 3.012 1.861-6.943 11.236zm7.998 5.947c.063-.351.209-.736.438-1.155-1.257.237-2.429-.059-3.516-.889-1.028-.785-1.654-1.735-1.878-2.849-.218-1.109.019-2.116.71-3.021.85-1.112 1.913-1.652 3.189-1.619 1.282.037 2.705.648 4.268 1.832l1.29.986.46-.601c.37-.485.541-.97.511-1.453-.024-.479-.304-.923-.84-1.334-.472-.36-.931-.531-1.375-.512-.438.023-.808.232-1.109.627l-2.804-2.142c.465-.608 1.082-1.027 1.853-1.258.77-.231 1.609-.23 2.517.003.912.226 1.796.666 2.649 1.318 1.293.988 2.069 2.098 2.326 3.329.269 1.23-.046 2.433-.945 3.61l-3.476 4.549c-.754 1.001-1.191 1.86-1.31 2.579l-.126.165-2.832-2.165zm-.829-3.721c.414.317.865.518 1.353.603.492.08.941.028 1.346-.154l1.379-1.804-1.048-.8c-1.403-1.072-2.521-1.158-3.352-.257l-.136.157a1.411 1.411 0 00-.291 1.145c.073.414.323.784.749 1.11zm18.744 20.45l-8.473-8.753 1.737-1.681 8.402-.131c1.169-.033 2.114-.139 2.836-.317.728-.172 1.3-.459 1.715-.861.567-.549.873-1.122.917-1.72.05-.604-.182-1.172-.697-1.704-.555-.573-1.192-.833-1.913-.782-.708.052-1.384.389-2.028 1.012l-2.462-2.544c.778-.753 1.667-1.256 2.667-1.51a5.459 5.459 0 013.036.118c1.025.322 1.954.912 2.786 1.772 1.273 1.316 1.945 2.642 2.016 3.978.076 1.342-.462 2.571-1.614 3.686-.632.611-1.433 1.07-2.405 1.377-.972.306-2.279.483-3.92.531l-5.871.06 5.315 5.491-2.044 1.978zm14.31 6.125c-1.93 1.521-3.722 2.285-5.374 2.292-1.653.007-3.086-.76-4.299-2.3-1.199-1.522-1.614-3.08-1.245-4.677.369-1.596 1.482-3.141 3.34-4.636l2.57-2.025c1.949-1.536 3.746-2.299 5.391-2.29 1.65.016 3.074.785 4.273 2.306 1.198 1.522 1.613 3.08 1.244 4.677-.362 1.591-1.473 3.134-3.33 4.629l-2.57 2.024zm.636-4.992c1.157-.911 1.871-1.734 2.144-2.466.283-.731.161-1.433-.368-2.104-.514-.652-1.147-.936-1.898-.851-.741.086-1.652.54-2.735 1.362l-3.394 2.675c-1.138.896-1.864 1.717-2.178 2.462-.303.746-.185 1.461.354 2.145.534.678 1.184.958 1.951.84.768-.117 1.703-.6 2.806-1.449l3.318-2.614zm7.809 18.032c-2.081 1.309-3.943 1.879-5.587 1.711-1.644-.168-2.987-1.082-4.032-2.742-1.031-1.639-1.279-3.233-.743-4.782.536-1.548 1.806-2.967 3.812-4.257l2.769-1.742c2.101-1.321 3.969-1.89 5.603-1.707 1.639.19 2.974 1.105 4.005 2.745 1.031 1.639 1.279 3.233.743 4.782-.529 1.543-1.796 2.96-3.801 4.251l-2.769 1.741zm1.159-4.897c1.247-.784 2.045-1.526 2.393-2.226.359-.697.312-1.407-.143-2.13-.442-.703-1.041-1.052-1.798-1.047-.745.007-1.7.362-2.863 1.065l-3.658 2.301c-1.226.771-2.035 1.51-2.426 2.218-.38.71-.339 1.434.125 2.171.459.73 1.077 1.077 1.852 1.041.775-.035 1.756-.417 2.943-1.144l3.575-2.249zm9.74 20.421l-2.255-4.982-9.431 4.267-1.454-3.214 12.033-5.445 3.709 8.196-2.602 1.178zm1.148 14.627c-1.921.669-3.614.768-5.08.297-1.455-.467-2.441-1.442-2.958-2.925-.439-1.26-.356-2.431.249-3.513l-5.879 2.049-1.161-3.331 17.268-6.018 1.077 3.089-1.182.541c1.249.47 2.1 1.354 2.553 2.653.536 1.537.383 2.93-.457 4.179-.84 1.249-2.259 2.222-4.257 2.919l-.173.06zm-.919-3.416c1.161-.404 1.984-.924 2.469-1.558.489-.627.596-1.333.323-2.116-.364-1.046-1.014-1.625-1.95-1.738l-5.107 1.779c-.68.694-.838 1.564-.474 2.609.555 1.591 2.134 1.932 4.739 1.024zm-1.91 19.117l-.806-3.447 4.945-1.156-.998-4.267-4.945 1.156-.803-3.435 12.861-3.007.803 3.435-5.158 1.206.997 4.267 5.159-1.206.806 3.447-12.861 3.007z"/></symbol><symbol id="arrow"><path d="M3 25.5l23 23 23-23" stroke="#fff" stroke-width="5" stroke-linecap="round" stroke-linejoin="round"/><path d="M3 3l23 23L49 3" stroke="#fff" stroke-width="5" stroke-linecap="round" stroke-linejoin="round"/></symbol><symbol id="close" viewBox="0 0 40 40">
<path d="M36.6378 3.06564L3.04211 36.6614" stroke="white" stroke-width="6" stroke-linecap="round" stroke-linejoin="round"/>
<path d="M3 3L36.5957 36.5957" stroke="white" stroke-width="6" stroke-linecap="round" stroke-linejoin="round"/>
</symbol><symbol id="net" viewBox="0 0 143 143">
<path d="M51.0041 75.2984L47.8512 63.1997H43.7548L40.6515 75.2984L37.1096 63.1997H32.2601L38.1275 82.2498H42.2983L45.5175 69.6628L48.7532 82.2498H52.8164L58.3941 63.1997H54.4798L51.0041 75.2984Z" fill="#077C75"/>
<path d="M79.2471 82.2498L84.8248 63.1997H80.9105L77.4348 75.2984L74.2818 63.1997H70.1854L67.0821 75.2984L63.5402 63.1997H58.6907L64.5581 82.2498H68.7289L71.9481 69.6628L75.1838 82.2498H79.2471Z" fill="#077C75"/>
<path d="M95.1601 82.2498L98.3793 69.6628L101.615 82.2498H105.67L111.256 63.1997H107.342L103.866 75.2984L100.713 63.1997H96.6083L93.5133 75.2984L89.9631 63.1997H85.1219L90.9893 82.2498H95.1601Z" fill="#077C75"/>
<path d="M142.712 69.9522C142.712 69.8364 142.703 69.7205 142.703 69.6047L142.695 69.4061C142.687 69.0337 142.67 68.6613 142.654 68.2889C142.646 68.1316 142.637 67.9744 142.629 67.8089L142.621 67.6434C142.604 67.3041 142.579 66.9648 142.554 66.6255C142.538 66.402 142.521 66.1786 142.505 65.9552C142.48 65.6242 142.447 65.2931 142.422 64.9621C142.406 64.7387 142.381 64.5152 142.356 64.2918C142.323 63.9608 142.281 63.6215 142.248 63.2905L142.232 63.125C142.215 62.9677 142.199 62.8022 142.174 62.645C142.124 62.2809 142.075 61.925 142.025 61.5609L142 61.3623C141.983 61.2464 141.967 61.1306 141.95 61.0147C141.868 60.452 141.785 59.9306 141.694 59.4175C141.686 59.3513 141.669 59.2934 141.661 59.2272L141.636 59.0948C141.545 58.5983 141.47 58.1928 141.396 57.8038C141.371 57.6631 141.338 57.5224 141.313 57.3818L141.272 57.1832C141.206 56.8604 141.139 56.5294 141.065 56.2066C141.024 56.0163 140.974 55.8177 140.932 55.6191L140.908 55.5198C140.841 55.2219 140.767 54.9157 140.693 54.6178C140.635 54.3778 140.577 54.146 140.51 53.9061C140.436 53.6164 140.361 53.3268 140.279 53.0371C140.213 52.7971 140.146 52.5654 140.08 52.3254C139.997 52.0358 139.915 51.7462 139.832 51.4565L139.79 51.3076C139.733 51.1255 139.683 50.9434 139.625 50.7531C139.542 50.4717 139.451 50.1904 139.36 49.909L139.269 49.6359C139.219 49.4869 139.178 49.3463 139.128 49.2056C138.963 48.7008 138.789 48.2043 138.624 47.7325C138.574 47.6001 138.524 47.4595 138.475 47.327L138.351 46.9878C138.26 46.7312 138.16 46.4664 138.061 46.2099C137.995 46.0278 137.92 45.8457 137.846 45.6637L137.755 45.4402C137.655 45.192 137.564 44.952 137.465 44.7037C137.366 44.4555 137.258 44.2072 137.151 43.9589C137.043 43.7107 136.944 43.4624 136.836 43.2224C136.729 42.9741 136.613 42.7176 136.505 42.4693C136.398 42.2293 136.29 41.9894 136.174 41.7494C136.058 41.4928 135.942 41.2446 135.818 40.9963C135.711 40.7729 135.603 40.5494 135.479 40.3012L135.421 40.177C135.313 39.9619 135.214 39.755 135.107 39.5398C135.024 39.3743 134.933 39.2088 134.85 39.035L134.651 38.6626C134.552 38.4723 134.461 38.2902 134.362 38.1082C134.32 38.0254 134.271 37.9509 134.229 37.8682L134.138 37.7109C133.832 37.1565 133.509 36.5855 133.178 36.0062L133.071 35.8241C132.988 35.6834 132.905 35.5345 132.823 35.3938C132.69 35.1786 132.566 34.9635 132.434 34.7483L132.293 34.5166C132.194 34.3511 132.086 34.1773 131.978 34.0118C131.821 33.7552 131.656 33.507 131.49 33.2504C131.358 33.0518 131.234 32.8449 131.101 32.6463C130.936 32.3981 130.77 32.1415 130.596 31.8933C130.464 31.6947 130.332 31.5043 130.191 31.3057C130.017 31.0574 129.843 30.8092 129.67 30.5526C129.57 30.4119 129.463 30.2713 129.363 30.1223L129.19 29.8823C129.032 29.6672 128.875 29.4437 128.71 29.2286C128.619 29.1127 128.536 28.9968 128.445 28.881L128.321 28.7237C127.021 27.019 125.648 25.3722 124.241 23.8247L124.224 23.8081C123.827 23.3778 123.463 22.9888 123.115 22.6164C122.726 22.2109 122.337 21.8054 121.957 21.4248C108.542 8.02676 90.7168 0.64502 71.7577 0.64502C52.7985 0.64502 34.9814 8.02675 21.5751 21.433C21.1945 21.8137 20.8055 22.2109 20.4166 22.6164C20.0607 22.9888 19.6966 23.3861 19.2911 23.8164C18.4139 24.7846 17.5532 25.7694 16.7423 26.7625L16.7009 26.8204C16.2292 27.3997 15.7409 28.0203 15.2113 28.7155L15.0789 28.8893C14.9878 29.0051 14.9051 29.121 14.8141 29.2368C14.6568 29.452 14.4996 29.6589 14.3424 29.874L14.1686 30.114C14.061 30.263 13.9534 30.4037 13.8458 30.5526C13.672 30.8009 13.4983 31.0492 13.3245 31.2974C13.1921 31.496 13.0514 31.6864 12.919 31.885C12.7535 32.1333 12.5797 32.3815 12.4142 32.6381C12.2818 32.8367 12.1494 33.0436 12.0169 33.2422C11.8514 33.4904 11.6942 33.747 11.537 33.9952C11.4294 34.169 11.3218 34.3511 11.2142 34.5249L11.0901 34.7235C10.9577 34.9386 10.8253 35.1538 10.6929 35.3772C10.6018 35.5262 10.5191 35.6752 10.4281 35.8324L10.3287 36.0062C10.0226 36.5358 9.72464 37.0654 9.43499 37.5868L9.32741 37.7771C9.26948 37.8847 9.21156 37.9923 9.15363 38.0999C9.05432 38.2819 8.96329 38.464 8.86399 38.6543L8.66537 39.035C8.57434 39.2088 8.49159 39.3743 8.40056 39.5481C8.29298 39.755 8.19367 39.9701 8.08609 40.177L8.01161 40.3343C7.90403 40.5577 7.79645 40.7729 7.68887 40.9963C7.56473 41.2446 7.44888 41.5011 7.33302 41.7494C7.22544 41.9894 7.10958 42.2293 7.002 42.4693C6.88614 42.7176 6.77856 42.9741 6.67098 43.2224C6.5634 43.4707 6.45582 43.7189 6.34824 43.9672C6.24066 44.2155 6.14135 44.4555 6.04204 44.7037C5.94274 44.9437 5.85171 45.1837 5.7524 45.4237L5.66965 45.6637C5.59517 45.8457 5.52069 46.0278 5.45448 46.2099C5.35518 46.4747 5.25587 46.7395 5.15657 47.0043L5.04071 47.327C4.99106 47.4595 4.9414 47.5919 4.89175 47.7243C4.72624 48.196 4.55246 48.6925 4.38695 49.1973C4.34557 49.3297 4.29592 49.4704 4.25454 49.6028L4.16351 49.8924C4.07248 50.1738 3.98145 50.4635 3.89042 50.7448C3.83249 50.9269 3.78284 51.1089 3.72491 51.291L3.68353 51.44C3.60078 51.7296 3.50974 52.0192 3.43527 52.3089C3.36906 52.5489 3.30286 52.7806 3.23665 53.0206C3.16217 53.3102 3.07942 53.5999 3.00494 53.8978C2.94701 54.1378 2.88908 54.3695 2.83116 54.6095C2.75668 54.9074 2.69047 55.2136 2.61599 55.5115L2.59117 55.6108C2.54151 55.8094 2.50014 56.008 2.45876 56.1984C2.38428 56.5211 2.31807 56.8439 2.25187 57.1749L2.21049 57.3735C2.17739 57.5142 2.15257 57.6549 2.12774 57.7955C2.05326 58.1762 1.97878 58.59 1.88775 59.0865L1.86292 59.2189C1.85465 59.2851 1.8381 59.3431 1.82982 59.4093C1.73879 59.9223 1.65604 60.452 1.57328 61.0064C1.55673 61.1223 1.54018 61.2381 1.52363 61.354L1.4988 61.5526C1.44915 61.9167 1.3995 62.2726 1.34984 62.6367C1.33329 62.7939 1.30847 62.9512 1.29191 63.1167L1.27536 63.2822C1.23399 63.6132 1.20088 63.9525 1.16778 64.2835C1.14296 64.507 1.1264 64.7304 1.10158 64.9538C1.06848 65.2849 1.04365 65.6159 1.01882 65.9469C1.00227 66.1703 0.985721 66.3938 0.96917 66.6172C0.944344 66.9565 0.927793 67.2958 0.902966 67.6351L0.894691 67.784C0.886415 67.9496 0.87814 68.1151 0.869864 68.2806C0.853313 68.653 0.836762 69.0254 0.828487 69.3978L0.820211 69.5964C0.820211 69.7122 0.811936 69.8281 0.811936 69.9522C0.795385 70.5398 0.787109 71.086 0.787109 71.6156C0.787109 72.1452 0.795385 72.6914 0.80366 73.2873C0.80366 73.4031 0.811936 73.519 0.811936 73.6431L0.820211 73.8334C0.828487 74.2058 0.845038 74.5782 0.861589 74.9506C0.869864 75.1079 0.87814 75.2734 0.886415 75.4472L0.894691 75.5961C0.911242 75.9354 0.936068 76.2747 0.960895 76.614C0.977446 76.8374 0.993997 77.0609 1.01055 77.2843C1.03537 77.6153 1.06848 77.9464 1.0933 78.2774C1.10985 78.5008 1.13468 78.7243 1.15951 78.9477C1.19261 79.2787 1.23399 79.618 1.26709 79.949L1.28364 80.1063C1.30019 80.2635 1.31674 80.429 1.34157 80.5862C1.39122 80.9504 1.44087 81.3145 1.49053 81.6703L1.51535 81.8689C1.5319 81.9848 1.54845 82.1006 1.56501 82.2165C1.64776 82.7792 1.73052 83.3006 1.82155 83.8137C1.82982 83.8799 1.84637 83.9378 1.85465 84.004L1.87947 84.1364C1.9705 84.6329 2.04498 85.0384 2.11946 85.4274C2.14429 85.5681 2.17739 85.7088 2.20222 85.8494L2.2436 86.0481C2.3098 86.3708 2.376 86.7018 2.45048 87.0246C2.49186 87.2232 2.54151 87.4301 2.59117 87.6287L2.60772 87.7114C2.67392 88.0093 2.7484 88.3155 2.82288 88.6135C2.88081 88.8534 2.93874 89.0852 2.99666 89.3251C3.07114 89.6148 3.14562 89.9127 3.22838 90.2023C3.29458 90.4423 3.35251 90.6741 3.42699 90.914C3.50974 91.2037 3.5925 91.4933 3.67525 91.783L3.71663 91.9402C3.76629 92.1223 3.82421 92.3043 3.88214 92.4781C3.97317 92.7677 4.0642 93.0574 4.15523 93.3388L4.23799 93.5953C4.27937 93.736 4.32902 93.8767 4.37867 94.0256C4.54418 94.5304 4.71797 95.027 4.88348 95.4987C4.93313 95.6311 4.97451 95.7552 5.02416 95.8959L5.14829 96.2352C5.2476 96.5 5.33863 96.7565 5.43793 97.0214C5.50414 97.2034 5.57862 97.3855 5.6531 97.5675L5.74413 97.791C5.84343 98.031 5.93446 98.2792 6.03377 98.5192C6.13307 98.7592 6.23238 98.9909 6.33169 99.2392L6.33996 99.264C6.44754 99.5123 6.54685 99.7605 6.65443 100.009C6.76201 100.257 6.87787 100.514 6.98545 100.762C7.09303 101.002 7.20061 101.242 7.31647 101.482C7.43233 101.73 7.54818 101.987 7.67232 102.235C7.77162 102.45 7.8792 102.657 7.97851 102.872L8.06954 103.062C8.17712 103.278 8.27643 103.485 8.38401 103.691C8.47504 103.865 8.56607 104.047 8.6571 104.221L8.84743 104.577C8.94674 104.759 9.03777 104.949 9.13708 105.131C9.19501 105.239 9.25293 105.338 9.31086 105.438L9.42672 105.644C9.70809 106.166 10.0143 106.695 10.3205 107.225L10.4281 107.407C10.5108 107.556 10.6018 107.697 10.6846 107.846C10.817 108.061 10.9411 108.276 11.0735 108.491L11.2059 108.698C11.3135 108.872 11.4211 109.046 11.5287 109.219C11.6859 109.476 11.8514 109.724 12.0087 109.981C12.1411 110.179 12.2735 110.386 12.4059 110.585C12.5714 110.833 12.7369 111.09 12.9107 111.338C13.0431 111.537 13.1838 111.735 13.3162 111.926C13.49 112.174 13.6638 112.422 13.8376 112.67C13.9451 112.828 14.061 112.977 14.1686 113.134L14.3258 113.349C14.483 113.564 14.632 113.771 14.7892 113.986C14.8803 114.102 14.963 114.218 15.0541 114.334L15.1782 114.499C15.7244 115.219 16.2209 115.848 16.7009 116.436L16.7174 116.452C17.876 117.876 19.109 119.266 20.3835 120.598C20.7724 121.004 21.1614 121.401 21.542 121.79C34.9483 135.196 52.7654 142.578 71.7246 142.578C90.6837 142.578 108.501 135.196 121.907 121.79C122.288 121.409 122.685 121.004 123.066 120.606C124.903 118.687 126.649 116.634 128.279 114.499L128.42 114.309C128.503 114.201 128.585 114.094 128.668 113.986C128.834 113.763 128.999 113.539 129.173 113.299L129.305 113.117C129.413 112.968 129.521 112.819 129.636 112.662C129.81 112.414 129.992 112.165 130.166 111.909C130.298 111.71 130.439 111.52 130.572 111.321C130.745 111.073 130.911 110.817 131.076 110.568C131.209 110.37 131.341 110.171 131.465 109.964C131.631 109.716 131.788 109.459 131.945 109.203C132.053 109.037 132.152 108.872 132.252 108.706L132.384 108.483C132.516 108.259 132.657 108.044 132.789 107.821C132.88 107.672 132.963 107.523 133.046 107.374L133.145 107.2C133.468 106.637 133.791 106.083 134.08 105.537L134.171 105.363C134.221 105.272 134.271 105.189 134.32 105.098C134.42 104.908 134.519 104.726 134.618 104.535L134.817 104.155C134.9 103.989 134.991 103.824 135.073 103.658C135.181 103.451 135.28 103.245 135.388 103.029L135.471 102.872C135.578 102.649 135.686 102.425 135.793 102.202C135.918 101.954 136.033 101.697 136.149 101.449C136.257 101.209 136.373 100.969 136.48 100.729C136.596 100.481 136.704 100.224 136.811 99.9757C136.919 99.7274 137.026 99.4792 137.126 99.2309C137.233 98.9827 137.333 98.7344 137.44 98.4861C137.54 98.2544 137.631 98.0144 137.722 97.7744L137.829 97.5013C137.895 97.3275 137.97 97.1538 138.036 96.98C138.135 96.7152 138.235 96.4586 138.326 96.1938L138.45 95.8628C138.5 95.7304 138.549 95.598 138.599 95.4656C138.773 94.9856 138.938 94.4973 139.104 93.9925C139.153 93.8518 139.195 93.7112 139.244 93.5705L139.327 93.2974C139.418 93.016 139.509 92.7264 139.6 92.445C139.658 92.2712 139.708 92.0892 139.757 91.9071L139.807 91.7499C139.89 91.4602 139.981 91.1706 140.055 90.8809C140.122 90.641 140.188 90.4092 140.254 90.1693C140.328 89.8796 140.411 89.59 140.486 89.292C140.544 89.0521 140.601 88.8203 140.659 88.5804C140.734 88.2824 140.8 87.9762 140.875 87.6783L140.899 87.5707C140.941 87.3804 140.99 87.1818 141.032 86.9915C141.106 86.6687 141.172 86.3377 141.239 86.015L141.28 85.8081C141.305 85.6674 141.338 85.535 141.363 85.3943C141.437 85.0136 141.512 84.5998 141.603 84.1033L141.628 83.9709C141.636 83.913 141.652 83.8468 141.661 83.7888C141.752 83.2758 141.835 82.7544 141.917 82.1834C141.934 82.0675 141.95 81.9517 141.967 81.8358L141.992 81.6372C142.041 81.2731 142.091 80.9173 142.141 80.5531C142.157 80.3876 142.182 80.2304 142.199 80.0649L142.215 79.9076C142.257 79.5766 142.29 79.2373 142.323 78.9063C142.348 78.6829 142.364 78.4594 142.389 78.236C142.422 77.905 142.447 77.574 142.472 77.2429C142.488 77.0195 142.505 76.7961 142.521 76.5726C142.546 76.2333 142.563 75.894 142.588 75.5547L142.596 75.4058C142.604 75.2403 142.612 75.0748 142.621 74.9092C142.637 74.5369 142.654 74.1645 142.662 73.7921L142.67 73.5934C142.67 73.4776 142.679 73.3617 142.679 73.2459C142.695 72.65 142.695 72.1039 142.695 71.5742C142.728 71.0942 142.728 70.5481 142.712 69.9522ZM94.7718 11.428C94.8629 11.4611 94.9539 11.4942 95.0449 11.5273C95.3925 11.6597 95.7649 11.8087 96.1952 11.9907L96.3276 12.0404C96.3938 12.0652 96.4683 12.0983 96.5345 12.1231C96.9235 12.2886 97.3289 12.4624 97.7758 12.661L98.0075 12.7603C98.4627 12.9672 98.9261 13.1741 99.3813 13.3975L99.464 13.4306C104.843 16.0043 109.841 19.3145 114.335 23.2702L114.36 23.295C114.765 23.6509 115.163 24.0067 115.543 24.3626L115.568 24.3874C115.932 24.7267 116.305 25.0743 116.66 25.4301L116.743 25.5129C117.107 25.8687 117.48 26.2411 117.844 26.6135C114.666 28.4672 111.157 30.1306 107.417 31.5705C106.026 28.2107 104.454 25.0246 102.733 22.0868C100.325 17.9904 97.6434 14.4072 94.7553 11.4114L94.7718 11.428ZM75.0265 7.4392C83.2192 8.755 91.0396 15.1188 97.0807 25.397C98.5786 27.9459 99.9606 30.7264 101.194 33.6642C93.0588 36.0724 84.2537 37.4213 75.0182 37.6861V7.4392H75.0265ZM75.0265 44.2237C85.0481 43.9589 94.6146 42.4693 103.478 39.8046C104.529 43.0238 105.414 46.4002 106.126 49.8924H75.0265V44.2237ZM68.4889 7.4392V37.6861C59.2534 37.4296 50.4566 36.0724 42.3135 33.6642C43.5466 30.7264 44.9286 27.9459 46.4264 25.397C52.4758 15.1188 60.2961 8.755 68.4889 7.4392ZM68.4889 44.2237V49.8842H37.3896C38.1013 46.3919 38.995 43.0155 40.0377 39.7964C48.9091 42.4611 58.4755 43.9506 68.4889 44.2237ZM26.7887 25.5129L26.8052 25.4963C27.1859 25.1239 27.5749 24.7598 27.9638 24.3957L28.0548 24.3129C28.419 23.9736 28.7996 23.6343 29.1803 23.295C33.6739 19.3311 38.6806 16.0126 44.0596 13.4389L44.1424 13.3975C44.5975 13.1824 45.061 12.9672 45.5078 12.7686L45.7478 12.661C46.1947 12.4624 46.5919 12.2886 46.9809 12.1314C47.0471 12.1066 47.1133 12.0735 47.1795 12.0486L47.3202 11.9907C47.7588 11.8087 48.1229 11.668 48.4705 11.5273C48.5615 11.4942 48.6443 11.4611 48.7353 11.428L48.7684 11.4197C45.8802 14.4154 43.199 17.9987 40.7908 22.0951C39.0695 25.0246 37.4889 28.2107 36.1069 31.5788C32.3581 30.1471 28.8493 28.4838 25.6798 26.6218C26.0439 26.2494 26.4163 25.877 26.7887 25.5129ZM7.43233 67.8916C7.44888 67.5689 7.4737 67.2544 7.49025 66.9317C7.50681 66.7248 7.52336 66.5179 7.53991 66.311C7.56473 65.9966 7.58956 65.6904 7.62266 65.3842C7.63921 65.1773 7.66404 64.9704 7.68887 64.7635C7.72197 64.449 7.75507 64.1346 7.79645 63.8201L7.813 63.6629C7.82955 63.5222 7.8461 63.3815 7.86265 63.2325C7.90403 62.8932 7.95368 62.5539 8.00333 62.2146L8.02816 62.016C8.04471 61.9167 8.05299 61.8174 8.06954 61.7264C8.15229 61.1885 8.23505 60.7002 8.3178 60.2285L8.32608 60.1872C8.40883 59.7237 8.49986 59.2437 8.59917 58.7472C8.61572 58.6562 8.64055 58.5652 8.6571 58.4741L8.70675 58.2507C8.77295 57.9197 8.84743 57.5969 8.92191 57.2742C8.95502 57.1418 8.98812 57.0011 9.02122 56.8687L9.0626 56.7032C9.13708 56.4053 9.20328 56.1073 9.27776 55.8094C9.32741 55.6108 9.37707 55.4122 9.43499 55.2136C9.50947 54.9239 9.59223 54.6343 9.66671 54.3447C9.72464 54.1461 9.77429 53.9474 9.83222 53.7488C9.91497 53.4592 10.006 53.1613 10.097 52.8716L10.1467 52.7061C10.1881 52.5737 10.2294 52.4413 10.2708 52.3089C10.3701 51.9944 10.4694 51.68 10.577 51.3655L10.6432 51.1586C10.6763 51.0676 10.7011 50.9765 10.7342 50.8855C10.8998 50.389 11.0653 49.9338 11.2225 49.4952L11.2722 49.3711C11.4294 48.9325 11.5949 48.5104 11.7521 48.1049C11.7935 48.0056 11.8266 47.9146 11.868 47.807L11.9425 47.6167C12.0583 47.3188 12.1825 47.0209 12.3066 46.7312C12.3645 46.5905 12.4307 46.4498 12.4969 46.2926L12.5466 46.1768C12.6624 45.9037 12.7783 45.6389 12.9024 45.3658C12.9852 45.1754 13.0762 44.9851 13.159 44.803C13.2831 44.5382 13.399 44.2734 13.5231 44.0168C13.6141 43.8348 13.6969 43.6445 13.7879 43.4624C13.9203 43.1976 14.0527 42.9328 14.1851 42.6679L14.2596 42.519C14.3258 42.3949 14.3837 42.2624 14.4499 42.1383C14.5989 41.8569 14.7479 41.5756 14.8968 41.2942L14.9961 41.1122C15.0458 41.0211 15.0954 40.9301 15.1368 40.8473C15.3851 40.3922 15.6168 39.9784 15.8485 39.5812L15.9478 39.4074C16.1712 39.0185 16.3864 38.6626 16.5933 38.315C16.6512 38.224 16.7091 38.133 16.7671 38.0337L16.8747 37.8599C17.0402 37.5951 17.1974 37.3303 17.3629 37.0737C17.4457 36.9413 17.5284 36.8172 17.6112 36.6848L17.6939 36.5606C17.8512 36.3206 18.0084 36.0807 18.1656 35.8407C18.2815 35.6669 18.3973 35.4931 18.5132 35.3276C18.6704 35.0959 18.8359 34.8642 19.0015 34.6325C19.1173 34.4587 19.2414 34.2932 19.3573 34.1276C19.5228 33.8959 19.6966 33.6559 19.8704 33.4242L19.9614 33.3001C20.0524 33.1842 20.1352 33.0601 20.2262 32.9442C20.4166 32.696 20.6069 32.4394 20.8055 32.1912L20.9379 32.0174C20.9959 31.9429 21.0538 31.8602 21.12 31.7857C21.1696 31.7195 21.2193 31.6533 21.2689 31.5953C21.6 31.794 21.9062 31.9843 22.2041 32.1581C25.746 34.2435 29.6603 36.1055 33.8394 37.6944C32.5236 41.7742 31.4395 46.0857 30.612 50.5462C26.8963 51.4896 23.4785 53.4178 20.6979 56.1984C17.3629 59.5334 15.2609 63.7704 14.6072 68.3551H7.4075C7.4075 68.2475 7.43233 67.8916 7.43233 67.8916ZM21.2938 111.636C21.2441 111.57 21.1945 111.512 21.1448 111.446C21.0786 111.371 21.0207 111.288 20.9545 111.197L20.8303 111.032C20.64 110.783 20.4497 110.535 20.2593 110.287C20.1766 110.179 20.1021 110.072 20.0193 109.964L19.9035 109.799C19.7297 109.567 19.5642 109.335 19.3904 109.095C19.2663 108.93 19.1504 108.756 19.0263 108.59C18.8608 108.359 18.7035 108.127 18.538 107.895C18.4222 107.722 18.3063 107.548 18.1905 107.374C18.0332 107.134 17.876 106.894 17.7188 106.654L17.6608 106.563C17.5698 106.422 17.4788 106.29 17.3877 106.149C17.2222 105.893 17.0567 105.628 16.8995 105.363L16.7919 105.189C16.734 105.09 16.676 104.999 16.6181 104.9C16.4112 104.56 16.1961 104.196 15.9726 103.807L15.8733 103.642C15.6416 103.236 15.4099 102.822 15.1616 102.376C15.112 102.285 15.0623 102.194 15.0127 102.094L14.9216 101.92C14.7727 101.639 14.6237 101.358 14.4748 101.076C14.4086 100.952 14.3506 100.836 14.2927 100.712L14.21 100.547C14.0775 100.282 13.9451 100.017 13.8127 99.7523C13.7217 99.5702 13.6307 99.3799 13.5479 99.1978C13.4238 98.933 13.2996 98.6765 13.1755 98.4116C13.0928 98.2213 13.0017 98.0392 12.919 97.8489C12.7948 97.5758 12.679 97.311 12.5631 97.0379L12.5052 96.8972C12.4473 96.7565 12.3893 96.6241 12.3314 96.4834C12.2073 96.1855 12.0832 95.8876 11.9673 95.5897L11.8845 95.3828C11.8514 95.2918 11.8101 95.2007 11.777 95.1097C11.6114 94.6959 11.4542 94.2739 11.297 93.8436L11.2556 93.7277C11.0984 93.2891 10.9329 92.834 10.7673 92.3374C10.7342 92.2464 10.7011 92.1471 10.6763 92.0561L10.6101 91.8657C10.5025 91.5513 10.4032 91.2368 10.3039 90.9223C10.2625 90.7899 10.2212 90.6575 10.1798 90.5251L10.1301 90.3679C10.0391 90.0782 9.95635 89.7886 9.86532 89.4907C9.80739 89.292 9.74946 89.0934 9.69981 88.9031C9.61705 88.6135 9.54258 88.3238 9.4681 88.0342C9.41844 87.8356 9.36051 87.637 9.31086 87.4383C9.23638 87.1404 9.1619 86.8425 9.0957 86.5446L9.0626 86.4122C9.0295 86.2632 8.99639 86.1225 8.96329 85.9736C8.88881 85.6508 8.82261 85.3198 8.74813 84.9888L8.70675 84.7902C8.68192 84.6909 8.66537 84.5916 8.64055 84.4923C8.54124 83.9957 8.45021 83.5075 8.35918 83.0441L8.35091 83.0027C8.26815 82.531 8.1854 82.0427 8.10264 81.5048C8.08609 81.4055 8.07781 81.3145 8.06126 81.2152L8.03644 81.0166C7.98678 80.6773 7.93713 80.338 7.89575 79.9987C7.8792 79.858 7.86265 79.7173 7.8461 79.5849L7.82955 79.4111C7.78817 79.0966 7.75507 78.7822 7.72197 78.4677C7.69714 78.2608 7.68059 78.0539 7.66404 77.847C7.63094 77.5409 7.60611 77.2264 7.58128 76.9202C7.56473 76.7133 7.54818 76.5064 7.53163 76.2995C7.50681 75.9851 7.49025 75.6623 7.4737 75.3396C7.4737 75.3396 7.44888 74.9837 7.44888 74.8844H14.6486C15.3023 79.469 17.4043 83.7061 20.7393 87.0411C23.5199 89.8217 26.9294 91.7499 30.6533 92.6933C31.4809 97.1538 32.5733 101.465 33.9056 105.545C29.7265 107.134 25.8205 108.996 22.2703 111.081C21.9227 111.255 21.6165 111.437 21.2938 111.636ZM48.4787 131.704C48.1395 131.572 47.7753 131.423 47.3285 131.24L47.1547 131.166C47.0967 131.141 47.0471 131.125 46.9892 131.1C46.6085 130.943 46.203 130.769 45.7561 130.57L45.5161 130.463C45.061 130.256 44.5975 130.049 44.1424 129.825L44.0679 129.792C38.6888 127.219 33.6904 123.908 29.2051 119.953L29.1803 119.928C28.7831 119.58 28.3776 119.216 27.9886 118.852L27.9721 118.836C27.5831 118.471 27.1859 118.099 26.8135 117.735L26.797 117.718C26.4328 117.362 26.0604 116.99 25.6963 116.618C28.8741 114.764 32.3829 113.101 36.1234 111.661C37.5137 115.021 39.0861 118.207 40.8074 121.144C43.2155 125.241 45.8968 128.824 48.7849 131.82C48.7849 131.82 48.5781 131.745 48.4787 131.704ZM68.4889 135.792C60.2961 134.476 52.4758 128.112 46.4347 117.834C44.9368 115.285 43.5548 112.505 42.3218 109.567C50.4566 107.159 59.2617 105.81 68.4972 105.545V135.792H68.4889ZM68.4889 99.0157C58.4673 99.2806 48.9008 100.77 40.0377 103.435C38.9868 100.216 38.1013 96.8393 37.3896 93.347H68.4889V99.0157ZM68.4889 87.968H36.4379H35.9248C33.707 87.968 31.5885 87.5211 29.6686 86.7101C29.5196 86.6522 29.3789 86.586 29.23 86.5198C29.2051 86.5115 29.1803 86.4949 29.1638 86.4867C29.0479 86.4287 28.932 86.3791 28.8162 86.3212C28.7831 86.3046 28.75 86.288 28.7169 86.2715C28.6093 86.2136 28.4934 86.1556 28.3859 86.0977C28.361 86.0812 28.3279 86.0729 28.3031 86.0563C28.03 85.9074 27.7569 85.7501 27.4921 85.5929C27.4673 85.5764 27.4425 85.5598 27.4176 85.5515C27.31 85.4853 27.2025 85.4191 27.0949 85.3446C27.0618 85.3281 27.037 85.3033 27.0039 85.2867C26.8963 85.2122 26.7804 85.1377 26.6728 85.0633C26.6563 85.055 26.6397 85.0384 26.6232 85.0302C26.3666 84.8481 26.1184 84.6661 25.8701 84.4674C25.8453 84.4509 25.8287 84.4343 25.8039 84.4178C25.7046 84.335 25.6053 84.2523 25.506 84.1695C25.4812 84.153 25.4646 84.1364 25.4398 84.1116C25.3239 84.0123 25.2163 83.913 25.1005 83.8137C25.1005 83.8137 25.1005 83.8137 25.0922 83.8054C24.8605 83.5902 24.6288 83.3751 24.4054 83.1434C24.3888 83.1268 24.3722 83.1103 24.3557 83.0937C24.2564 82.9944 24.1654 82.8951 24.0661 82.7958C24.0495 82.7792 24.0412 82.771 24.0247 82.7544C23.7019 82.4068 23.3957 82.0427 23.1061 81.662C23.0978 81.6455 23.0895 81.6372 23.073 81.6207C22.982 81.4965 22.8909 81.3807 22.7999 81.2565C22.7999 81.2483 22.7916 81.2483 22.7916 81.24C22.5103 80.8428 22.2372 80.4373 21.9889 80.0152C21.9806 80.007 21.9806 79.9987 21.9724 79.9904C21.6413 79.4277 21.3434 78.8401 21.0786 78.236C20.6152 77.1685 20.2593 76.0513 20.0359 74.8761C19.8456 73.8831 19.738 72.8486 19.738 71.7977V71.417C19.738 69.133 20.218 66.9565 21.0786 64.9869C21.0786 64.9869 21.0786 64.9869 21.0786 64.9787C21.3434 64.3746 21.6413 63.787 21.9724 63.2243C21.9806 63.216 21.9806 63.2077 21.9889 63.1994C22.2372 62.7774 22.502 62.3719 22.7916 61.9747C22.7916 61.9664 22.7999 61.9664 22.7999 61.9581C22.8909 61.834 22.982 61.7098 23.073 61.594C23.0813 61.5774 23.0896 61.5692 23.1061 61.5526C23.3957 61.1719 23.7019 60.8078 24.0247 60.4602C24.0412 60.4437 24.0495 60.4354 24.0661 60.4189C24.1571 60.3196 24.2564 60.2203 24.3557 60.121C24.3722 60.1044 24.3888 60.0878 24.4054 60.0713C24.6288 59.8479 24.8605 59.6244 25.0922 59.4093C25.0922 59.4093 25.1005 59.4093 25.1005 59.401C25.2081 59.3017 25.3239 59.2024 25.4398 59.1031C25.4646 59.0865 25.4812 59.07 25.506 59.0451C25.6053 58.9624 25.7046 58.8796 25.8039 58.7969C25.8287 58.7803 25.8453 58.7638 25.8701 58.7472C26.1184 58.5486 26.3666 58.3665 26.6232 58.1845C26.6397 58.1762 26.6563 58.1597 26.6728 58.1514C26.7804 58.0769 26.888 58.0024 27.0039 57.9279C27.037 57.9114 27.0618 57.8866 27.0949 57.87C27.2025 57.8038 27.31 57.7293 27.4176 57.6631C27.4425 57.6466 27.4673 57.63 27.4921 57.6218C27.7569 57.4562 28.03 57.3073 28.3031 57.1583C28.3279 57.1418 28.361 57.1335 28.3859 57.117C28.4934 57.059 28.6093 57.0011 28.7169 56.9432C28.75 56.9266 28.7831 56.9101 28.8162 56.8935C28.932 56.8356 29.0479 56.7777 29.1638 56.728C29.1886 56.7197 29.2134 56.7032 29.23 56.6949C31.274 55.7598 33.5415 55.2384 35.9248 55.2384H36.4379H68.4889H75.0182H107.069H107.582C109.974 55.2384 112.241 55.7598 114.277 56.6949C114.302 56.7032 114.327 56.7197 114.343 56.728C114.459 56.7859 114.575 56.8356 114.691 56.8935C114.724 56.9101 114.757 56.9266 114.79 56.9432C114.898 57.0011 115.014 57.059 115.121 57.117C115.146 57.1335 115.179 57.1418 115.204 57.1583C115.477 57.3073 115.75 57.4645 116.015 57.6218C116.04 57.6383 116.065 57.6549 116.089 57.6631C116.197 57.7293 116.305 57.7955 116.412 57.87C116.445 57.8866 116.47 57.9114 116.503 57.9279C116.611 58.0024 116.727 58.0769 116.834 58.1514C116.851 58.1597 116.867 58.1762 116.884 58.1845C117.14 58.3665 117.389 58.5569 117.637 58.7472C117.662 58.7638 117.678 58.7803 117.703 58.7969C117.803 58.8796 117.902 58.9624 118.001 59.0451C118.026 59.0617 118.042 59.0782 118.067 59.1031C118.183 59.2024 118.291 59.3017 118.407 59.401C118.407 59.401 118.415 59.401 118.415 59.4093C118.647 59.6244 118.878 59.8396 119.102 60.0713C119.118 60.0878 119.135 60.1044 119.151 60.121C119.251 60.2203 119.342 60.3196 119.441 60.4189C119.458 60.4354 119.466 60.4437 119.482 60.4602C119.805 60.8078 120.111 61.1719 120.401 61.5526C120.409 61.5692 120.418 61.5774 120.434 61.594C120.525 61.7181 120.616 61.834 120.707 61.9581C120.707 61.9664 120.715 61.9664 120.715 61.9747C120.997 62.3719 121.27 62.7774 121.518 63.1994C121.526 63.2077 121.526 63.216 121.535 63.2243C121.866 63.787 122.164 64.3746 122.429 64.9787C123.289 66.9482 123.769 69.1247 123.769 71.4087V71.7894C123.769 72.8404 123.67 73.8665 123.471 74.8679C123.248 76.0347 122.892 77.1602 122.429 78.2277C122.429 78.2277 122.429 78.2277 122.429 78.236C122.164 78.8401 121.866 79.4277 121.535 79.9904C121.526 79.9987 121.526 80.007 121.518 80.0152C121.27 80.4373 121.005 80.8428 120.715 81.24C120.715 81.2483 120.707 81.2483 120.707 81.2565C120.616 81.3807 120.525 81.5048 120.434 81.6207C120.426 81.6372 120.418 81.6455 120.401 81.662C120.111 82.0427 119.805 82.4068 119.482 82.7544C119.466 82.771 119.458 82.7792 119.441 82.7958C119.35 82.8951 119.251 82.9944 119.151 83.0937C119.135 83.1103 119.118 83.1268 119.102 83.1434C118.878 83.3668 118.647 83.5902 118.415 83.8054C118.415 83.8054 118.415 83.8054 118.407 83.8137C118.299 83.913 118.183 84.0123 118.067 84.1116C118.042 84.1281 118.026 84.1447 118.001 84.1695C117.902 84.2523 117.803 84.335 117.703 84.4178C117.678 84.4343 117.662 84.4509 117.637 84.4674C117.389 84.6661 117.14 84.8481 116.884 85.0302C116.867 85.0384 116.851 85.055 116.834 85.0633C116.727 85.1377 116.619 85.2122 116.503 85.2867C116.47 85.3033 116.445 85.3281 116.412 85.3446C116.305 85.4108 116.197 85.4853 116.089 85.5515C116.065 85.5681 116.04 85.5846 116.015 85.5929C115.75 85.7584 115.477 85.9074 115.204 86.0563C115.179 86.0729 115.146 86.0812 115.121 86.0977C115.014 86.1556 114.898 86.2136 114.79 86.2715C114.757 86.288 114.724 86.3046 114.691 86.3212C114.575 86.3791 114.459 86.437 114.343 86.4867C114.319 86.4949 114.302 86.5115 114.277 86.5198C112.233 87.4549 109.966 87.9762 107.582 87.9762H107.069H75.0265H68.4889V87.968ZM106.126 93.347C105.414 96.8393 104.52 100.216 103.478 103.435C94.6146 100.77 85.0481 99.2806 75.0265 99.0157V93.347H106.126ZM75.0265 135.792V105.545C84.262 105.802 93.0588 107.159 101.202 109.567C99.9688 112.505 98.5868 115.285 97.089 117.834C91.0396 128.112 83.2192 134.476 75.0265 135.792ZM116.735 117.718L116.71 117.743C116.329 118.116 115.932 118.488 115.535 118.86C115.138 119.224 114.741 119.589 114.352 119.936L114.31 119.969C109.825 123.925 104.818 127.235 99.4475 129.801L99.3647 129.842C98.9013 130.057 98.4461 130.272 97.991 130.479L97.751 130.587C97.3041 130.785 96.8986 130.959 96.518 131.116C96.46 131.141 96.1787 131.257 96.1787 131.257C95.7401 131.439 95.3759 131.58 95.0284 131.72C94.9622 131.745 94.7304 131.836 94.7304 131.836C97.6186 128.841 100.3 125.257 102.708 121.161C104.429 118.231 106.01 115.045 107.392 111.677C111.141 113.109 114.65 114.772 117.819 116.634C117.471 116.99 117.099 117.362 116.735 117.718ZM136.091 75.3396C136.075 75.6623 136.05 75.9768 136.033 76.2995C136.017 76.5064 136 76.7133 135.984 76.9202C135.959 77.2347 135.934 77.5409 135.901 77.847C135.884 78.0539 135.86 78.2608 135.843 78.4677C135.81 78.7822 135.777 79.0966 135.735 79.4111L135.719 79.5849C135.702 79.7256 135.686 79.8663 135.669 79.9987C135.628 80.338 135.578 80.6773 135.529 81.0166L135.496 81.2234C135.479 81.3228 135.471 81.4138 135.454 81.5131C135.371 82.051 135.289 82.5392 135.206 83.0109L135.198 83.0523C135.115 83.5158 135.024 84.004 134.924 84.4923C134.908 84.5916 134.883 84.6909 134.858 84.7902L134.817 84.9888C134.751 85.3198 134.676 85.6426 134.602 85.9653C134.569 86.1143 134.536 86.2549 134.502 86.4039L134.469 86.5446C134.395 86.8425 134.329 87.1404 134.254 87.4383C134.205 87.637 134.155 87.8356 134.097 88.0342C134.022 88.3238 133.94 88.6135 133.865 88.9031C133.807 89.1017 133.758 89.3003 133.7 89.4989C133.617 89.7886 133.526 90.0865 133.435 90.3761L133.394 90.5251C133.352 90.6658 133.311 90.7982 133.269 90.9389C133.17 91.2533 133.071 91.5678 132.963 91.8823L132.897 92.0892C132.864 92.1802 132.839 92.2712 132.806 92.3623C132.632 92.8588 132.475 93.3139 132.318 93.7525L132.276 93.8684C132.119 94.2904 131.962 94.7208 131.796 95.1345C131.755 95.2338 131.722 95.3332 131.68 95.4325L131.606 95.6228C131.49 95.9207 131.366 96.2186 131.242 96.5083C131.184 96.649 131.126 96.7896 131.06 96.9303L131.002 97.0627C130.886 97.3358 130.77 97.6006 130.646 97.8737C130.563 98.0641 130.472 98.2544 130.39 98.4365C130.265 98.7013 130.15 98.9578 130.025 99.2226C129.934 99.4047 129.852 99.595 129.761 99.7771C129.628 100.042 129.496 100.307 129.363 100.572L129.272 100.745C129.214 100.861 129.148 100.985 129.09 101.101C128.941 101.383 128.792 101.664 128.643 101.945L128.544 102.127C128.494 102.218 128.445 102.309 128.403 102.4C128.155 102.856 127.923 103.269 127.7 103.667L127.592 103.84C127.369 104.229 127.154 104.585 126.947 104.924C126.897 105.007 126.839 105.098 126.79 105.181L126.666 105.38C126.5 105.644 126.343 105.901 126.177 106.166C126.095 106.298 126.012 106.431 125.921 106.555L125.846 106.671C125.689 106.911 125.532 107.151 125.375 107.391C125.259 107.564 125.143 107.738 125.027 107.912C124.87 108.144 124.704 108.375 124.547 108.607C124.431 108.781 124.307 108.946 124.183 109.12C124.017 109.352 123.844 109.584 123.67 109.824L123.579 109.948C123.488 110.064 123.405 110.188 123.314 110.304C123.124 110.552 122.942 110.8 122.743 111.048L122.611 111.222C122.553 111.305 122.486 111.379 122.429 111.462C122.379 111.528 122.329 111.594 122.28 111.652C121.957 111.454 121.651 111.272 121.344 111.09C117.803 109.004 113.888 107.142 109.709 105.553C111.041 101.474 112.134 97.162 112.961 92.7016C116.677 91.7581 120.095 89.8299 122.875 87.0494C126.21 83.7144 128.312 79.4773 128.966 74.8927H136.166C136.108 74.9837 136.091 75.3396 136.091 75.3396ZM128.916 68.3551C128.263 63.7704 126.161 59.5334 122.826 56.1984C120.045 53.4178 116.636 51.4896 112.912 50.5462C112.084 46.0857 110.992 41.7742 109.659 37.6944C113.839 36.1055 117.745 34.2435 121.295 32.1581C121.601 31.976 121.907 31.794 122.23 31.5953C122.28 31.6615 122.329 31.7195 122.379 31.7857C122.445 31.8684 122.511 31.9595 122.586 32.0505L122.702 32.1995C122.892 32.4477 123.082 32.6877 123.273 32.9442C123.364 33.0601 123.446 33.176 123.537 33.3001L123.637 33.4325C123.811 33.6642 123.976 33.8959 124.15 34.1276C124.274 34.2932 124.39 34.4669 124.514 34.6407C124.679 34.8724 124.837 35.1042 124.994 35.3359C125.11 35.5097 125.226 35.6834 125.35 35.8572C125.507 36.0972 125.664 36.3372 125.821 36.5772L125.888 36.6765C125.979 36.8172 126.07 36.9496 126.152 37.0903C126.318 37.3468 126.483 37.6116 126.641 37.8764L126.748 38.0502C126.806 38.1495 126.864 38.2406 126.922 38.3399C127.129 38.6792 127.336 39.035 127.568 39.424L127.675 39.606C127.907 40.0032 128.139 40.417 128.379 40.8639C128.428 40.9549 128.478 41.046 128.528 41.137L128.627 41.319C128.776 41.6004 128.925 41.8818 129.074 42.1631C129.14 42.2956 129.206 42.428 129.272 42.5604L129.339 42.701C129.471 42.9659 129.603 43.2224 129.727 43.4872C129.819 43.6693 129.91 43.8596 129.992 44.05C130.116 44.3148 130.241 44.5713 130.356 44.8361C130.439 45.0265 130.53 45.2168 130.613 45.3989C130.737 45.6637 130.853 45.9368 130.969 46.2099L131.027 46.334C131.085 46.4747 131.151 46.6154 131.209 46.756C131.333 47.0457 131.449 47.3436 131.573 47.6415L131.656 47.8401C131.697 47.9394 131.73 48.0305 131.772 48.1298C131.937 48.5435 132.094 48.9739 132.252 49.3959L132.293 49.5118C132.458 49.9504 132.616 50.4138 132.781 50.9021C132.814 50.9931 132.847 51.0924 132.872 51.1834L132.938 51.3738C133.046 51.6882 133.145 52.0027 133.245 52.3172C133.286 52.4579 133.327 52.5985 133.377 52.7392L133.418 52.8799C133.509 53.1695 133.592 53.4592 133.675 53.7571C133.733 53.9557 133.791 54.1543 133.84 54.3529C133.923 54.6426 133.998 54.9322 134.072 55.2219C134.122 55.4205 134.18 55.6191 134.229 55.8177C134.304 56.1156 134.378 56.4135 134.445 56.7115L134.486 56.877C134.519 57.0094 134.552 57.1501 134.585 57.2825C134.66 57.6052 134.726 57.9362 134.8 58.259L134.85 58.4824C134.867 58.5734 134.891 58.6645 134.908 58.7555C135.007 59.252 135.098 59.732 135.189 60.2037L135.198 60.2451C135.28 60.7168 135.363 61.205 135.446 61.7429C135.462 61.834 135.471 61.925 135.487 62.016L135.52 62.2312C135.57 62.5705 135.62 62.9098 135.661 63.2491C135.678 63.3898 135.694 63.5305 135.711 63.6794L135.727 63.8366C135.769 64.1511 135.802 64.4656 135.835 64.7801C135.86 64.9869 135.876 65.1938 135.901 65.4007C135.934 65.7069 135.959 66.0214 135.984 66.3276C136 66.5345 136.017 66.7413 136.033 66.9482C136.058 67.2627 136.075 67.5854 136.091 67.9082C136.091 67.9082 136.116 68.264 136.116 68.3633H128.916V68.3551Z" fill="#077C75"/>
</symbol><symbol id="sprite"><symbol id="1" viewBox="0 0 261 271">
<path d="M37.2135 60.6368L24.2858 48.4397L28.5582 43.9114C30.0381 42.3428 31.4625 41.4379 32.8314 41.1966C34.1944 40.9497 35.4559 41.3736 36.6161 42.4682C37.2495 43.0658 37.6553 43.7563 37.8335 44.5398C38.0058 45.3177 37.9307 46.1029 37.6084 46.8952C38.3996 46.3886 39.2255 46.1832 40.0861 46.2791C40.9522 46.3691 41.7493 46.7575 42.4774 47.4444C43.7204 48.6172 44.2874 49.9018 44.1783 51.2981C44.0693 52.6945 43.3281 54.1322 41.9549 55.6114L37.2135 60.6368ZM34.0974 52.662L37.5868 55.9542L39.7397 53.6724C40.3317 53.0449 40.6445 52.417 40.678 51.7885C40.7112 51.1485 40.4644 50.58 39.9376 50.083C38.7538 48.966 37.5749 49.0118 36.4011 50.2203L34.0974 52.662ZM32.2151 50.8861L34.0748 48.9149C35.3189 47.5489 35.417 46.3717 34.3693 45.3832C33.7833 44.8303 33.2011 44.6054 32.6227 44.7086C32.0439 44.8003 31.4082 45.2131 30.7157 45.9471L28.9565 47.8116L32.2151 50.8861Z"/>
<path d="M53.8764 44.571C53.5477 44.4325 53.2036 44.206 52.8441 43.8915C52.8016 45.1702 52.2567 46.2489 51.2094 47.1277C50.2182 47.9595 49.1547 48.3632 48.0188 48.339C46.8892 48.3095 45.9582 47.8584 45.2259 46.9856C44.3261 45.9134 44.0315 44.7583 44.3419 43.5204C44.6586 42.2773 45.5655 41.0223 47.0627 39.7553L48.3064 38.7117L47.8199 38.132C47.4275 37.6644 46.9921 37.3924 46.5136 37.3159C46.0413 37.2341 45.5464 37.4103 45.029 37.8445C44.5739 38.2264 44.307 38.6363 44.2283 39.0742C44.1558 39.5069 44.2791 39.9133 44.5982 40.2936L41.8957 42.5613C41.404 41.9753 41.1297 41.2812 41.0728 40.4791C41.0158 39.677 41.2001 38.8584 41.6255 38.0234C42.0457 37.1821 42.6672 36.4162 43.4901 35.7257C44.7369 34.6795 45.9891 34.1652 47.2468 34.1828C48.5056 34.1889 49.611 34.7592 50.563 35.8938L54.2431 40.2794C55.055 41.2342 55.7984 41.848 56.4735 42.1208L56.6069 42.2798L53.8764 44.571ZM50.0644 44.5668C50.4633 44.232 50.7579 43.8361 50.9481 43.3791C51.133 42.9158 51.181 42.4666 51.0919 42.0313L49.6325 40.292L48.6226 41.1395C47.2698 42.2746 46.9421 43.3464 47.6395 44.3547L47.7635 44.5215C48.046 44.8582 48.3972 45.0362 48.8172 45.0556C49.2372 45.075 49.6529 44.9121 50.0644 44.5668Z"/>
<path d="M60.1584 23.9132L67.4921 34.8981L64.5581 36.8569L58.8104 28.2477L56.2215 29.9761L58.3026 33.489C59.394 35.3729 59.9175 36.9266 59.8732 38.1499C59.8289 39.3733 59.2246 40.3883 58.0605 41.1948L57.0656 41.859L55.4423 39.4936L55.7875 39.2191C56.2883 38.826 56.4662 38.2571 56.3213 37.5124C56.1763 36.7677 55.6666 35.6744 54.7922 34.2327L51.8842 29.4372L60.1584 23.9132Z"/>
<path d="M73.0835 31.8539L69.9838 33.5638L63.6041 21.9987L66.7038 20.2888L73.0835 31.8539ZM61.7715 19.1061C61.516 18.6429 61.4589 18.1772 61.6002 17.7089C61.7487 17.2366 62.0901 16.8531 62.6245 16.5583C63.1518 16.2674 63.6548 16.1851 64.1334 16.3115C64.6121 16.4378 64.9791 16.7326 65.2346 17.1957C65.4941 17.666 65.546 18.1393 65.3904 18.6154C65.242 19.0877 64.9077 19.4673 64.3875 19.7542C63.8673 20.0411 63.3643 20.1234 62.8786 20.001C62.4 19.8747 62.0309 19.5764 61.7715 19.1061Z"/>
<path d="M77.9384 19.1544C77.7466 18.732 77.4578 18.4699 77.0719 18.3681C76.6901 18.2554 76.2435 18.3152 75.7323 18.5474C75.2062 18.7863 74.8269 19.0926 74.5944 19.4663C74.3659 19.8292 74.3425 20.2108 74.5242 20.6109L71.312 22.0695C70.8174 20.9802 70.8673 19.8895 71.4618 18.7973C72.0562 17.7051 73.0574 16.8394 74.4653 16.2001C76.0139 15.4968 77.3671 15.2488 78.5248 15.456C79.6899 15.6599 80.5265 16.3212 81.0345 17.4401C81.2768 17.9736 81.3375 18.5404 81.2167 19.1405C81.1 19.7297 80.8095 20.2907 80.3453 20.8232C81.9348 20.6824 83.0425 21.3011 83.6683 22.6793C84.1696 23.7834 84.0958 24.8805 83.4468 25.9707C82.8019 27.0501 81.6939 27.9464 80.123 28.6597C78.6633 29.3226 77.3081 29.5268 76.0575 29.2724C74.8069 29.0181 73.9192 28.3129 73.3943 27.157L76.6064 25.6983C76.7915 26.1059 77.1228 26.3532 77.6003 26.4403C78.0777 26.5273 78.6092 26.4379 79.1946 26.1721C79.7651 25.913 80.1491 25.5778 80.3466 25.1664C80.5441 24.7549 80.5453 24.3343 80.3501 23.9045C80.1112 23.3784 79.7894 23.0732 79.3847 22.9889C78.9766 22.8971 78.4687 22.9892 77.8611 23.2651L76.1161 24.0575L75.1672 21.9679L77.0234 21.1251C78.0103 20.6412 78.3153 19.9843 77.9384 19.1544Z"/>
<path d="M93.3075 23.2941C93.0519 23.0453 92.814 22.709 92.5938 22.2851C92.0882 23.4603 91.1877 24.2663 89.8921 24.703C88.6659 25.1163 87.5284 25.1047 86.4795 24.6682C85.4384 24.2291 84.7358 23.4697 84.3719 22.3901C83.9248 21.0636 84.0713 19.8806 84.8116 18.841C85.5595 17.7988 86.8614 16.9606 88.7173 16.3264L90.2558 15.8078L90.0141 15.0906C89.8191 14.5122 89.5127 14.1002 89.095 13.8546C88.685 13.6064 88.1599 13.5901 87.5199 13.8059C86.9569 13.9956 86.559 14.2801 86.3261 14.6591C86.1009 15.0356 86.0676 15.4591 86.2261 15.9295L82.8831 17.0564C82.6388 16.3315 82.6363 15.5852 82.8756 14.8175C83.1149 14.0498 83.5848 13.3546 84.2852 12.7321C84.9831 12.1018 85.841 11.6151 86.8589 11.2719C88.4013 10.752 89.7549 10.7294 90.9197 11.2042C92.0896 11.6686 92.9111 12.6026 93.3842 14.0061L95.213 19.4313C95.621 20.6163 96.0897 21.4588 96.6189 21.9588L96.6852 22.1555L93.3075 23.2941ZM89.7591 21.9009C90.2527 21.7346 90.6713 21.4732 91.0149 21.1169C91.3559 20.7529 91.5643 20.352 91.6401 19.9143L90.9148 17.7627L89.6655 18.1838C87.9921 18.7479 87.2963 19.6266 87.5783 20.8197L87.633 21.0202C87.7734 21.4367 88.0356 21.7305 88.4196 21.9016C88.8036 22.0727 89.2501 22.0725 89.7591 21.9009Z"/>
</symbol><symbol id="2" viewBox="0 0 261 276">
<path d="M29.5474 48.523L32.0509 45.8503L41.0314 54.2619C41.857 55.0351 42.4151 55.9036 42.7057 56.8671C42.996 57.8191 43.0018 58.789 42.7232 59.7769C42.4446 60.7648 41.9131 61.6775 41.1287 62.515C39.8436 63.887 38.4947 64.6307 37.0822 64.746C35.6636 64.8557 34.3159 64.3125 33.0389 63.1164L35.559 60.4258C36.1946 61.0211 36.7889 61.327 37.3422 61.3434C37.8955 61.3598 38.4419 61.08 38.9815 60.5039C39.46 59.9931 39.6659 59.4221 39.5991 58.7909C39.5324 58.1598 39.1754 57.541 38.528 56.9346L29.5474 48.523Z"/>
<path d="M47.5235 55.5395L36.1483 41.883L40.9319 37.8985C42.5889 36.5183 44.1114 35.7903 45.4993 35.7145C46.882 35.6325 48.0838 36.2043 49.1046 37.4299C49.6619 38.099 49.9822 38.8331 50.0654 39.6323C50.1433 40.4253 49.9749 41.1958 49.56 41.9438C50.4062 41.5355 51.2507 41.4305 52.0936 41.6287C52.9428 41.8216 53.6877 42.3027 54.3283 43.0718C55.4221 44.3849 55.8313 45.7281 55.5559 47.1013C55.2805 48.4746 54.3726 49.8133 52.8323 51.1175L47.5235 55.5395ZM45.3842 47.2491L48.4545 50.9352L50.8651 48.9274C51.5279 48.3753 51.9135 47.7893 52.022 47.1693C52.1316 46.5379 51.9546 45.9439 51.491 45.3874C50.4493 44.1368 49.2735 44.0412 47.9635 45.1006L45.3842 47.2491ZM43.7279 45.2606L45.8101 43.5262C47.2087 42.3189 47.4471 41.1619 46.5252 40.0551C46.0095 39.436 45.4584 39.1431 44.8718 39.1763C44.2862 39.1981 43.6057 39.5319 42.8303 40.1777L40.8606 41.8184L43.7279 45.2606Z"/>
<path d="M61.277 41.1622L67.8067 36.9399L69.4041 39.4103L59.7992 45.6211L50.1484 30.6961L53.2236 28.7076L61.277 41.1622Z"/>
<path d="M80.1023 28.7377L78.8002 29.2942L80.7143 33.7729L77.4703 35.1593L72.2797 23.014L75.5237 21.6276L77.4761 26.1961L78.6323 25.702L79.3289 20.0013L83.426 18.2503L81.923 25.7294L88.987 30.2374L84.6654 32.0843L80.1023 28.7377Z"/>
<path d="M87.9121 23.5278C87.5408 22.2713 87.4517 21.0798 87.6449 19.9535C87.8382 18.8271 88.3079 17.8609 89.054 17.0549C89.808 16.2465 90.7859 15.6647 91.9877 15.3095C93.6969 14.8044 95.2445 14.9155 96.6306 15.643C98.0244 16.3682 99.0491 17.6098 99.7044 19.3679L99.9839 20.2272C100.558 22.1705 100.477 23.8917 99.7406 25.3907C99.0018 26.882 97.7193 27.8975 95.8931 28.4372C94.0669 28.977 92.4345 28.823 90.9959 27.9753C89.5651 27.1252 88.5522 25.6934 87.9571 23.6799L87.9121 23.5278ZM91.3679 22.7737C91.7231 23.9756 92.2216 24.8296 92.8634 25.3357C93.5029 25.8341 94.2441 25.9587 95.0869 25.7096C95.9064 25.4674 96.4541 24.9661 96.73 24.2057C97.0036 23.4375 96.9363 22.3627 96.5281 20.9813C96.1798 19.8029 95.6797 18.9578 95.0278 18.4461C94.3759 17.9345 93.6324 17.802 92.7973 18.0488C91.9701 18.2933 91.4259 18.8063 91.1646 19.5879C90.9011 20.3616 90.9689 21.4235 91.3679 22.7737Z"/>
<path d="M112.475 11.0767L114.751 24.0872L111.276 24.695L109.492 14.4983L106.426 15.0347L106.912 19.0887C107.15 21.2529 107.002 22.8857 106.468 23.987C105.933 25.0884 104.971 25.7731 103.58 26.0412L102.402 26.2473L101.871 23.4279L102.298 23.3161C102.915 23.1586 103.307 22.7099 103.475 21.9701C103.643 21.2302 103.618 20.0242 103.4 18.3522L102.675 12.7909L112.475 11.0767Z"/>
<path d="M116.535 17.0701C116.459 15.7621 116.644 14.5816 117.088 13.5288C117.532 12.4759 118.209 11.6419 119.119 11.0267C120.037 10.411 121.122 10.067 122.373 9.99446C124.153 9.89137 125.634 10.3517 126.819 11.3754C128.011 12.3986 128.726 13.8408 128.964 15.7019L129.041 16.6023C129.158 18.6252 128.688 20.2828 127.63 21.575C126.571 22.8591 125.091 23.5563 123.19 23.6664C121.289 23.7766 119.734 23.2553 118.526 22.1025C117.326 20.9493 116.666 19.3246 116.544 17.2285L116.535 17.0701ZM120.072 17.122C120.144 18.3731 120.435 19.3181 120.945 19.957C121.455 20.5878 122.148 20.8778 123.025 20.8269C123.878 20.7775 124.526 20.4139 124.967 19.7362C125.409 19.0504 125.588 17.9884 125.504 16.5504C125.433 15.3236 125.138 14.387 124.62 13.7404C124.102 13.0938 123.408 12.7958 122.538 12.8461C121.677 12.896 121.031 13.2718 120.599 13.9734C120.166 14.6669 119.99 15.7164 120.072 17.122Z"/>
<path d="M143.062 23.7258L139.528 23.521L139.821 18.4514L135.446 18.1979L135.153 23.2675L131.631 23.0635L132.395 9.87756L135.917 10.0816L135.61 15.3706L139.985 15.6241L140.292 10.3351L143.826 10.5399L143.062 23.7258Z"/>
<path d="M151.781 20.1102L150.386 19.8663L149.547 24.664L146.072 24.0561L148.348 11.0457L151.823 11.6536L150.967 16.5475L152.205 16.7642L155.899 12.3666L160.288 13.1343L154.948 18.5823L158.409 26.2142L153.78 25.4044L151.781 20.1102Z"/>
<path d="M166.53 28.596C166.463 28.2457 166.46 27.8338 166.522 27.3602C165.435 28.0352 164.235 28.1814 162.923 27.7989C161.68 27.4369 160.754 26.7769 160.143 25.819C159.54 24.8634 159.398 23.8387 159.717 22.7449C160.108 21.4011 160.905 20.5143 162.107 20.0847C163.316 19.6574 164.864 19.7142 166.749 20.2551L168.307 20.7094L168.519 19.9828C168.69 19.3968 168.674 18.8836 168.472 18.4432C168.278 18.0051 167.856 17.6916 167.208 17.5026C166.637 17.3364 166.148 17.3422 165.74 17.52C165.34 17.7001 165.071 18.0284 164.932 18.505L161.545 17.5179C161.759 16.7835 162.184 16.1698 162.819 15.6769C163.454 15.1839 164.237 14.8823 165.168 14.7721C166.101 14.654 167.083 14.7453 168.114 15.0459C169.677 15.5013 170.8 16.2567 171.484 17.3122C172.179 18.3622 172.319 19.5982 171.904 21.0202L170.302 26.5166C169.959 27.7221 169.862 28.6812 170.01 29.3941L169.952 29.5933L166.53 28.596ZM164.416 25.4241C164.916 25.5698 165.409 25.5948 165.894 25.499C166.382 25.3953 166.783 25.1856 167.095 24.8698L167.73 22.69L166.465 22.3211C164.769 21.827 163.696 22.15 163.245 23.29L163.175 23.4859C163.052 23.9078 163.099 24.2987 163.317 24.6587C163.534 25.0187 163.9 25.2738 164.416 25.4241Z"/>
</symbol><symbol id="3" viewBox="0 0 261 276">
<path d="M36.1354 45.9528L32.3992 49.9128L43.1693 60.0743L40.6561 62.738L29.8861 52.5765L26.2001 56.4832L24.0425 54.4476L33.9778 43.9172L36.1354 45.9528Z"/>
<path d="M52.7804 51.5595C51.2967 52.8045 49.7054 53.3643 48.0066 53.2388C46.314 53.108 44.8321 52.2853 43.5609 50.7704L43.3412 50.5086C42.4885 49.4924 41.9238 48.4206 41.6469 47.2931C41.3649 46.1594 41.4018 45.0766 41.7578 44.0449C42.1147 43.0017 42.7545 42.093 43.6771 41.3188C45.0611 40.1575 46.5151 39.681 48.0392 39.8894C49.5695 40.0926 51.0068 40.9952 52.3512 42.5974L53.2772 43.7008L46.8343 49.1072C47.4761 49.6947 48.1826 50.0049 48.9538 50.0377C49.7312 50.0653 50.4565 49.7966 51.1298 49.2316C52.1709 48.358 52.6679 47.2982 52.6209 46.0522L55.1964 46.4247C55.2725 47.3383 55.1005 48.2475 54.6806 49.1523C54.2554 50.0509 53.622 50.8533 52.7804 51.5595ZM45.5039 43.5148C44.9678 43.9646 44.6831 44.5116 44.6499 45.1557C44.6229 45.7945 44.8451 46.4898 45.3166 47.2415L49.0757 44.0871L48.8952 43.872C48.3805 43.284 47.8314 42.9587 47.2476 42.8961C46.6587 42.8273 46.0775 43.0335 45.5039 43.5148Z"/>
<path d="M64.2789 34.9996C65.4085 36.6917 65.9287 38.3063 65.8395 39.8434C65.7524 41.3693 65.0558 42.5682 63.7495 43.4403C62.6395 44.1814 61.4851 44.3943 60.2864 44.0791L63.7432 49.2568L60.8091 51.2156L50.6558 36.0073L53.3767 34.1908L54.1966 35.1992C54.338 33.872 54.9805 32.8265 56.1244 32.0629C57.478 31.1591 58.8649 30.9573 60.2849 31.4575C61.7049 31.9576 63.0024 33.0876 64.1772 34.8473L64.2789 34.9996ZM61.2025 36.7452C60.5202 35.7232 59.811 35.0567 59.075 34.7457C58.3458 34.4302 57.636 34.5029 56.9456 34.9638C56.0251 35.5783 55.6273 36.3528 55.752 37.2871L58.7546 41.7846C59.5968 42.2694 60.4782 42.2045 61.3987 41.5899C62.7997 40.6546 62.7343 39.0397 61.2025 36.7452Z"/>
<path d="M74.2101 32.3474L73.2929 22.7083L77.2531 20.7478L83.1131 32.5846L79.9515 34.1498L76.3553 26.8858L77.1181 35.5526L74.9958 36.6033L68.6805 30.8352L72.2171 37.9789L69.0555 39.5441L63.1954 27.7072L67.1228 25.7629L74.2101 32.3474Z"/>
<path d="M82.6027 25.5821C82.1795 24.3421 82.0411 23.1554 82.1874 22.022C82.3337 20.8886 82.7629 19.9038 83.4749 19.0674C84.1947 18.2285 85.1476 17.6066 86.3337 17.2018C88.0204 16.6261 89.5713 16.673 90.9863 17.3423C92.4091 18.0089 93.4844 19.207 94.2122 20.9363L94.5271 21.7833C95.1816 23.7011 95.172 25.4241 94.4984 26.9525C93.8221 28.4731 92.5828 29.541 90.7806 30.1561C88.9784 30.7711 87.341 30.685 85.8685 29.8978C84.4036 29.1079 83.3321 27.7194 82.654 25.7323L82.6027 25.5821ZM86.0243 24.6852C86.4291 25.8713 86.9626 26.7039 87.6248 27.183C88.2844 27.6544 89.0301 27.7482 89.8619 27.4643C90.6706 27.1883 91.197 26.6647 91.4412 25.8934C91.6827 25.1145 91.5708 24.0434 91.1055 22.6802C90.7086 21.5172 90.1739 20.6937 89.5013 20.2095C88.8287 19.7253 88.0804 19.6239 87.2563 19.9051C86.4399 20.1837 85.9174 20.7189 85.6889 21.5106C85.4577 22.2946 85.5695 23.3528 86.0243 24.6852Z"/>
<path d="M104.23 19.7532L97.5394 21.3229L96.8898 18.5539L103.581 16.9841L104.23 19.7532Z"/>
<path d="M113.204 21.8796C113.848 21.7896 114.348 21.5392 114.701 21.1283C115.055 20.7174 115.198 20.2166 115.132 19.626L118.409 19.1687C118.524 20.0564 118.396 20.9042 118.024 21.7121C117.651 22.5119 117.078 23.1753 116.305 23.7022C115.539 24.22 114.657 24.5486 113.657 24.6881C111.787 24.9491 110.23 24.5625 108.984 23.5285C107.738 22.4863 106.968 20.9175 106.676 18.8219L106.644 18.5922C106.362 16.5772 106.674 14.8945 107.578 13.5439C108.483 12.1934 109.87 11.3876 111.74 11.1267C113.376 10.8983 114.751 11.183 115.865 11.9807C116.985 12.7692 117.662 13.9361 117.894 15.4813L114.618 15.9386C114.507 15.2638 114.221 14.745 113.759 14.3821C113.297 14.0112 112.735 13.8719 112.074 13.9641C111.26 14.0777 110.685 14.462 110.349 15.1169C110.02 15.7627 109.949 16.7505 110.134 18.0804L110.185 18.4431C110.373 19.7891 110.713 20.7276 111.207 21.2586C111.7 21.7896 112.365 21.9966 113.204 21.8796Z"/>
<path d="M125.929 18.3779L128.083 10.0827L131.865 9.95133L127.088 25.3853L126.82 26.0909C126.091 27.8425 124.819 28.7498 123.006 28.8129C122.493 28.8307 121.97 28.7715 121.436 28.6353L121.343 25.9636L121.88 25.9572C122.547 25.934 123.04 25.8151 123.358 25.6004C123.684 25.3855 123.933 25.039 124.104 24.5607L124.481 23.4606L119.397 10.3846L123.191 10.2527L125.929 18.3779Z"/>
<path d="M141.466 19.5961L145.708 10.8923L150.11 11.2837L148.94 24.4398L145.426 24.1273L146.144 16.0537L142.276 23.8472L139.918 23.6375L137.535 15.4229L136.829 23.3628L133.315 23.0503L134.485 9.89421L138.85 10.2824L141.466 19.5961Z"/>
<path d="M157.417 21.2768L156.035 20.9692L154.977 25.7234L151.533 24.9569L154.403 12.0644L157.846 12.8309L156.767 17.6805L157.994 17.9537L161.886 13.73L166.235 14.698L160.651 19.8956L163.758 27.678L159.171 26.657L157.417 21.2768Z"/>
<path d="M172.48 30.68C172.43 30.3269 172.447 29.9153 172.532 29.4452C171.413 30.0661 170.208 30.1534 168.916 29.7069C167.693 29.2844 166.799 28.5797 166.236 27.593C165.681 26.609 165.589 25.5786 165.961 24.5017C166.418 23.1787 167.258 22.3321 168.479 21.962C169.708 21.5945 171.251 21.7271 173.107 22.3599L174.642 22.8901L174.889 22.1747C175.088 21.5978 175.098 21.0845 174.917 20.6347C174.744 20.1876 174.339 19.8538 173.7 19.6332C173.139 19.4392 172.65 19.421 172.234 19.5786C171.826 19.7388 171.54 20.0536 171.378 20.5228L168.044 19.3707C168.294 18.6477 168.748 18.0556 169.407 17.5944C170.065 17.1331 170.862 16.8703 171.797 16.8059C172.735 16.7338 173.711 16.8731 174.727 17.2239C176.265 17.7554 177.35 18.565 177.981 19.6529C178.623 20.7356 178.702 21.977 178.219 23.3769L176.349 28.7881C175.948 29.9753 175.803 30.9286 175.917 31.6479L175.849 31.844L172.48 30.68ZM170.523 27.4082C171.016 27.5783 171.507 27.6274 171.996 27.5555C172.489 27.4759 172.899 27.2861 173.226 26.986L173.968 24.84L172.722 24.4094C171.053 23.8328 169.965 24.1027 169.459 25.2193L169.379 25.4114C169.236 25.8268 169.264 26.2196 169.463 26.5898C169.662 26.96 170.016 27.2328 170.523 27.4082Z"/>
</symbol><symbol id="4" viewBox="0 0 474 503">
<path d="M159.924 177.554C161.652 178.386 162.792 179.598 163.344 181.19C163.898 182.775 163.793 184.536 163.027 186.473C162.189 188.592 160.818 189.98 158.913 190.636C157.004 191.281 154.805 191.111 152.315 190.127L151.305 189.727C149.715 189.099 148.426 188.265 147.436 187.227C146.447 186.188 145.836 185.023 145.602 183.732C145.364 182.43 145.518 181.09 146.062 179.713C146.816 177.806 147.935 176.472 149.417 175.71C150.9 174.949 152.6 174.842 154.518 175.391L153.172 178.796C152.072 178.458 151.182 178.451 150.502 178.777C149.817 179.093 149.268 179.773 148.855 180.817C148.406 181.952 148.478 182.965 149.071 183.856C149.659 184.736 150.806 185.522 152.51 186.214L153.759 186.707C155.545 187.413 156.956 187.661 157.994 187.45C159.034 187.231 159.785 186.539 160.246 185.374C160.662 184.322 160.733 183.444 160.46 182.741C160.182 182.027 159.554 181.434 158.578 180.96L159.924 177.554Z"/>
<path d="M169.363 172.776C168.462 174.49 167.201 175.611 165.581 176.138C163.965 176.658 162.282 176.458 160.532 175.538L160.229 175.379C159.055 174.761 158.127 173.983 157.443 173.044C156.753 172.102 156.377 171.086 156.316 169.996C156.251 168.896 156.499 167.812 157.06 166.746C157.901 165.147 159.066 164.156 160.555 163.771C162.048 163.38 163.721 163.671 165.572 164.644L166.847 165.315L162.931 172.759C163.748 173.059 164.519 173.079 165.245 172.817C165.975 172.548 166.545 172.025 166.954 171.247C167.587 170.044 167.645 168.875 167.13 167.739L169.654 167.109C170.071 167.926 170.256 168.832 170.21 169.829C170.157 170.821 169.875 171.804 169.363 172.776ZM159.582 168.087C159.256 168.706 159.2 169.32 159.413 169.929C159.63 170.53 160.099 171.09 160.82 171.607L163.104 167.264L162.856 167.133C162.157 166.784 161.525 166.691 160.961 166.854C160.39 167.013 159.93 167.424 159.582 168.087Z"/>
<path d="M173.693 152.908C175.391 154.029 176.497 155.315 177.011 156.766C177.524 158.206 177.347 159.582 176.482 160.892C175.747 162.006 174.765 162.651 173.538 162.826L178.734 166.255L176.791 169.199L161.529 159.126L163.332 156.396L164.479 157.007C164.094 155.729 164.28 154.516 165.038 153.368C165.934 152.009 167.134 151.285 168.637 151.195C170.14 151.104 171.774 151.642 173.54 152.807L173.693 152.908ZM171.535 155.711C170.51 155.034 169.597 154.696 168.798 154.695C168.004 154.687 167.378 155.03 166.921 155.722C166.311 156.646 166.245 157.514 166.723 158.327L171.236 161.306C172.2 161.426 172.987 161.024 173.597 160.1C174.525 158.694 173.838 157.231 171.535 155.711Z"/>
<path d="M178.903 140.131L176.245 143.429L184.325 149.939L182.104 152.696L174.024 146.186L171.413 149.427L169.207 147.65L176.698 138.354L178.903 140.131Z"/>
<path d="M184.444 130.234L186.916 127.717L196.34 136.972L193.868 139.489L188.05 133.775L190.771 142.642L188.291 145.168L178.867 135.912L181.348 133.387L187.157 139.092L184.444 130.234Z"/>
<path d="M193.531 130.54C192.199 128.886 191.476 127.3 191.361 125.783C191.253 124.261 191.792 123.022 192.977 122.068C193.44 121.695 193.936 121.448 194.464 121.325L190.919 116.923L193.666 114.711L197.219 119.122C197.459 118.615 197.817 118.171 198.292 117.788C199.483 116.828 200.808 116.566 202.266 117.001C203.725 117.424 205.177 118.533 206.622 120.327C207.872 121.879 208.526 123.385 208.583 124.844C208.635 126.297 208.074 127.495 206.902 128.439C206.414 128.833 205.902 129.099 205.366 129.238L208.612 133.269L205.865 135.481L202.626 131.46C202.383 131.937 202.024 132.367 201.549 132.75C200.44 133.643 199.215 133.945 197.875 133.656C196.534 133.367 195.25 132.525 194.023 131.131L193.531 130.54ZM203.704 122.347C202.877 121.321 202.089 120.66 201.339 120.365C200.584 120.063 199.925 120.14 199.361 120.594C199.184 120.737 199.008 120.915 198.835 121.128L203.758 127.241C203.966 127.136 204.181 126.994 204.403 126.816C205.48 125.948 205.405 124.661 204.177 122.954L203.704 122.347ZM196.439 128.527C197.966 130.422 199.309 130.903 200.469 129.968C200.709 129.774 200.89 129.603 201.01 129.454L196.087 123.341C195.842 123.465 195.637 123.593 195.473 123.726C194.908 124.18 194.691 124.799 194.821 125.583C194.945 126.36 195.485 127.342 196.439 128.527Z"/>
<path d="M214.981 122.452L212.04 124.423L204.689 113.45L207.63 111.479L214.981 122.452ZM202.614 110.725C202.32 110.286 202.223 109.827 202.323 109.348C202.431 108.865 202.738 108.453 203.245 108.114C203.745 107.778 204.239 107.653 204.727 107.738C205.215 107.823 205.606 108.085 205.9 108.524C206.199 108.97 206.291 109.437 206.177 109.925C206.07 110.408 205.77 110.815 205.276 111.146C204.783 111.477 204.289 111.602 203.794 111.522C203.306 111.437 202.913 111.172 202.614 110.725Z"/>
<path d="M219.728 113.849L218.494 114.544L220.884 118.788L217.811 120.519L211.329 109.011L214.403 107.28L216.841 111.608L217.936 110.991L218.008 105.249L221.89 103.062L221.21 110.66L228.723 114.373L224.628 116.679L219.728 113.849Z"/>
<path d="M236.734 110.873C236.458 110.647 236.191 110.333 235.935 109.93C235.534 111.145 234.707 112.026 233.455 112.575C232.27 113.093 231.135 113.181 230.052 112.838C228.977 112.492 228.211 111.796 227.754 110.753C227.193 109.47 227.235 108.279 227.882 107.179C228.536 106.075 229.759 105.127 231.553 104.333L233.04 103.682L232.737 102.988C232.492 102.429 232.151 102.045 231.713 101.837C231.283 101.626 230.759 101.656 230.14 101.926C229.596 102.165 229.224 102.483 229.025 102.881C228.834 103.275 228.837 103.7 229.037 104.155L225.805 105.57C225.498 104.869 225.43 104.126 225.602 103.34C225.773 102.554 226.18 101.821 226.824 101.139C227.464 100.45 228.276 99.8906 229.26 99.4599C230.751 98.8072 232.097 98.6664 233.299 99.0376C234.505 99.398 235.405 100.257 235.999 101.613L238.295 106.858C238.805 108.003 239.345 108.801 239.916 109.253L240 109.443L236.734 110.873ZM233.078 109.795C233.555 109.586 233.949 109.289 234.26 108.904C234.568 108.512 234.741 108.094 234.778 107.651L233.867 105.571L232.66 106.1C231.042 106.808 230.426 107.744 230.811 108.908L230.883 109.103C231.059 109.506 231.346 109.776 231.743 109.913C232.141 110.049 232.586 110.01 233.078 109.795Z"/>
<path d="M248.776 95.548L244.753 96.8749L248.003 106.729L244.641 107.838L241.391 97.9838L237.438 99.2877L236.551 96.5982L247.889 92.8585L248.776 95.548Z"/>
<path d="M258.697 96.7945C258.355 94.7973 258.552 93.1079 259.289 91.7263C260.035 90.3434 261.213 89.5137 262.825 89.237C264.253 88.9921 265.448 89.2908 266.41 90.1331L266.344 88.8811L269.496 88.3403L271.655 100.925C271.851 102.064 271.76 103.099 271.383 104.031C271.014 104.961 270.398 105.727 269.536 106.329C268.673 106.932 267.612 107.341 266.353 107.557C265.398 107.721 264.435 107.688 263.462 107.458C262.491 107.237 261.722 106.865 261.153 106.343L262.33 103.962C263.363 104.784 264.497 105.089 265.732 104.877C266.654 104.718 267.329 104.347 267.757 103.761C268.187 103.184 268.324 102.442 268.168 101.536L268.048 100.838C267.402 101.882 266.425 102.516 265.117 102.74C263.553 103.009 262.182 102.616 261.002 101.564C259.829 100.502 259.069 98.9601 258.722 96.9388L258.697 96.7945ZM262.218 96.4505C262.42 97.6296 262.816 98.5154 263.404 99.108C263.992 99.6925 264.699 99.9139 265.525 99.7721C266.583 99.5905 267.273 99.0634 267.594 98.1909L266.655 92.7167C266.054 92.0025 265.236 91.7341 264.201 91.9116C263.367 92.0547 262.767 92.5085 262.403 93.2728C262.047 94.0358 261.985 95.095 262.218 96.4505Z"/>
<path d="M277.165 100.885L273.642 101.226L272.366 88.0802L275.89 87.7383L277.165 100.885ZM271.83 84.6982C271.779 84.1717 271.911 83.7215 272.226 83.3475C272.549 82.9727 273.015 82.7559 273.622 82.6969C274.222 82.6387 274.716 82.7625 275.105 83.0681C275.495 83.3737 275.715 83.7898 275.766 84.3163C275.818 84.8509 275.678 85.3059 275.347 85.6815C275.023 86.0563 274.566 86.2724 273.975 86.3298C273.383 86.3871 272.889 86.2634 272.492 85.9586C272.102 85.653 271.881 85.2328 271.83 84.6982Z"/>
<path d="M281.592 100.555L281.181 89.9433L279.217 90.0194L279.117 87.4334L281.081 87.3573L281.038 86.2351C280.98 84.7551 281.359 83.5921 282.173 82.7462C282.995 81.8918 284.17 81.435 285.699 81.3757C286.187 81.3568 286.788 81.415 287.502 81.5502L287.571 84.284C287.275 84.2221 286.916 84.1994 286.493 84.2158C285.168 84.2671 284.529 84.9149 284.577 86.1591L284.618 87.2203L287.241 87.1187L287.341 89.7046L284.719 89.8062L285.13 100.418L281.592 100.555Z"/>
<path d="M294.727 84.0025L294.639 87.2484L296.896 87.3096L296.826 89.8966L294.569 89.8354L294.39 96.4247C294.377 96.9128 294.461 97.2652 294.642 97.4818C294.824 97.6983 295.179 97.8138 295.707 97.8281C296.098 97.8387 296.444 97.8196 296.747 97.7709L296.674 100.443C295.977 100.636 295.263 100.722 294.53 100.703C292.057 100.636 290.83 99.3526 290.849 96.8538L291.042 89.7397L289.114 89.6874L289.184 87.1005L291.112 87.1528L291.2 83.9069L294.727 84.0025Z"/>
<path d="M309.947 88.455L309.788 89.9276C310.916 88.9679 312.264 88.6319 313.833 88.9197C315.506 89.2266 316.533 90.0977 316.916 91.533C318.07 90.3797 319.492 89.9579 321.181 90.2678C322.59 90.5262 323.563 91.1308 324.1 92.0815C324.639 93.0243 324.757 94.3201 324.454 95.969L322.932 104.266L319.45 103.627L320.97 95.3423C321.105 94.6058 321.059 94.0431 320.833 93.6541C320.608 93.257 320.131 92.9917 319.403 92.858C318.362 92.6671 317.551 93.0313 316.968 93.9504L315.344 102.874L311.874 102.237L313.392 93.9644C313.53 93.212 313.481 92.6405 313.247 92.25C313.012 91.8594 312.539 91.5988 311.827 91.4681C310.842 91.2875 310.055 91.5651 309.465 92.3007L307.78 101.486L304.31 100.849L306.693 87.8581L309.947 88.455Z"/>
<path d="M332.268 107.331C332.209 106.979 332.216 106.567 332.289 106.095C331.186 106.744 329.984 106.862 328.68 106.449C327.447 106.057 326.536 105.375 325.948 104.403C325.368 103.434 325.25 102.406 325.595 101.32C326.018 99.9859 326.836 99.1183 328.047 98.7172C329.266 98.3186 330.812 98.4121 332.684 98.9975L334.231 99.4885L334.46 98.7671C334.645 98.1854 334.641 97.672 334.45 97.2269C334.266 96.7843 333.852 96.4609 333.208 96.2566C332.642 96.0769 332.153 96.0711 331.741 96.2392C331.336 96.4098 331.059 96.7317 330.909 97.2049L327.547 96.1379C327.778 95.4087 328.217 94.8053 328.864 94.3275C329.511 93.8497 330.3 93.5667 331.233 93.4785C332.169 93.3826 333.149 93.4971 334.173 93.822C335.724 94.3143 336.829 95.0961 337.488 96.1676C338.157 97.2337 338.268 98.4726 337.82 99.8844L336.088 105.341C335.717 106.538 335.597 107.495 335.728 108.211L335.666 108.409L332.268 107.331ZM330.229 104.11C330.726 104.267 331.218 104.304 331.706 104.22C332.196 104.128 332.601 103.927 332.921 103.619L333.608 101.455L332.351 101.056C330.668 100.522 329.587 100.82 329.109 101.949L329.035 102.143C328.902 102.562 328.94 102.954 329.148 103.319C329.357 103.684 329.717 103.947 330.229 104.11Z"/>
<path d="M340.572 110.428L337.283 109.119L344.218 91.6989L347.507 93.0083L340.572 110.428Z"/>
<path d="M346.567 113.057L343.346 111.589L351.12 94.5269L354.342 95.9947L346.567 113.057Z"/>
<path d="M365.014 123.393L362.002 121.532L364.672 117.212L360.944 114.908L358.274 119.228L355.273 117.374L362.216 106.138L365.217 107.992L362.432 112.499L366.16 114.803L368.945 110.296L371.957 112.157L365.014 123.393Z"/>
<path d="M373.012 129.34C373.075 128.989 373.221 128.604 373.45 128.185C372.193 128.422 371.021 128.126 369.934 127.296C368.906 126.511 368.28 125.561 368.056 124.447C367.838 123.338 368.075 122.331 368.766 121.426C369.616 120.314 370.679 119.774 371.955 119.807C373.237 119.844 374.66 120.455 376.223 121.639L377.513 122.625L377.973 122.024C378.343 121.539 378.514 121.054 378.484 120.571C378.46 120.092 378.18 119.648 377.644 119.237C377.172 118.877 376.713 118.706 376.269 118.725C375.831 118.748 375.461 118.957 375.16 119.352L372.356 117.21C372.821 116.602 373.438 116.183 374.209 115.952C374.979 115.721 375.818 115.722 376.726 115.955C377.638 116.181 378.522 116.621 379.375 117.273C380.668 118.261 381.444 119.371 381.701 120.602C381.97 121.832 381.655 123.035 380.756 124.212L377.28 128.761C376.526 129.762 376.089 130.621 375.97 131.34L375.844 131.505L373.012 129.34ZM372.183 125.619C372.597 125.936 373.048 126.137 373.536 126.222C374.028 126.302 374.477 126.25 374.882 126.068L376.261 124.264L375.213 123.464C373.81 122.392 372.692 122.306 371.861 123.207L371.725 123.364C371.458 123.713 371.361 124.095 371.434 124.509C371.507 124.923 371.757 125.293 372.183 125.619Z"/>
<path d="M390.927 146.069L382.454 137.316L384.191 135.635L392.593 135.504C393.762 135.471 394.707 135.365 395.429 135.187C396.157 135.015 396.729 134.728 397.144 134.326C397.711 133.777 398.017 133.204 398.061 132.606C398.111 132.002 397.879 131.434 397.364 130.902C396.809 130.329 396.172 130.069 395.451 130.12C394.743 130.172 394.067 130.509 393.423 131.132L390.961 128.588C391.739 127.835 392.628 127.332 393.628 127.078C394.633 126.829 395.645 126.869 396.664 127.196C397.689 127.518 398.618 128.108 399.45 128.968C400.723 130.284 401.395 131.61 401.466 132.946C401.542 134.288 401.004 135.517 399.852 136.632C399.22 137.243 398.419 137.702 397.447 138.009C396.475 138.315 395.168 138.492 393.527 138.54L387.656 138.6L392.971 144.091L390.927 146.069Z"/>
<path d="M405.237 152.194C403.307 153.715 401.515 154.479 399.863 154.486C398.21 154.493 396.777 153.726 395.564 152.186C394.365 150.664 393.95 149.106 394.319 147.509C394.688 145.913 395.801 144.368 397.659 142.873L400.229 140.848C402.178 139.312 403.975 138.549 405.62 138.558C407.27 138.574 408.694 139.343 409.893 140.864C411.091 142.386 411.506 143.944 411.137 145.541C410.775 147.132 409.664 148.675 407.807 150.17L405.237 152.194ZM405.873 147.202C407.03 146.291 407.744 145.468 408.017 144.736C408.3 144.005 408.178 143.303 407.649 142.632C407.135 141.98 406.502 141.696 405.751 141.781C405.01 141.867 404.099 142.321 403.016 143.143L399.622 145.818C398.484 146.714 397.758 147.535 397.444 148.28C397.141 149.026 397.259 149.741 397.798 150.425C398.332 151.103 398.982 151.383 399.749 151.265C400.517 151.148 401.452 150.665 402.555 149.816L405.873 147.202Z"/>
<path d="M413.682 165.234C411.601 166.543 409.739 167.113 408.095 166.945C406.451 166.777 405.108 165.863 404.063 164.203C403.032 162.564 402.784 160.97 403.32 159.421C403.856 157.873 405.126 156.454 407.132 155.164L409.901 153.422C412.002 152.101 413.87 151.532 415.504 151.715C417.143 151.905 418.478 152.82 419.509 154.46C420.54 156.099 420.788 157.693 420.252 159.242C419.723 160.785 418.456 162.202 416.451 163.493L413.682 165.234ZM414.841 160.337C416.088 159.553 416.886 158.811 417.234 158.111C417.593 157.414 417.546 156.704 417.091 155.981C416.649 155.278 416.05 154.929 415.293 154.934C414.548 154.941 413.593 155.296 412.43 155.999L408.772 158.3C407.546 159.071 406.737 159.81 406.346 160.518C405.966 161.228 406.007 161.952 406.471 162.689C406.93 163.419 407.548 163.766 408.323 163.73C409.098 163.695 410.079 163.313 411.266 162.586L414.841 160.337Z"/>
<path d="M424.581 180.758L422.326 175.776L412.895 180.043L411.441 176.829L423.474 171.384L427.183 179.58L424.581 180.758Z"/>
<path d="M425.729 195.385C423.808 196.054 422.115 196.153 420.649 195.682C419.194 195.215 418.208 194.24 417.691 192.757C417.252 191.497 417.335 190.326 417.94 189.244L412.061 191.293L410.9 187.962L428.168 181.944L429.245 185.033L428.063 185.574C429.312 186.044 430.163 186.928 430.616 188.227C431.152 189.764 430.999 191.157 430.159 192.406C429.319 193.655 427.9 194.628 425.902 195.325L425.729 195.385ZM424.81 191.969C425.971 191.565 426.794 191.045 427.279 190.411C427.768 189.784 427.875 189.078 427.602 188.295C427.238 187.249 426.588 186.67 425.652 186.557L420.545 188.336C419.865 189.03 419.707 189.9 420.071 190.945C420.626 192.536 422.205 192.877 424.81 191.969Z"/>
<path d="M422.9 211.086L422.094 207.639L427.039 206.483L426.041 202.216L421.096 203.372L420.293 199.937L433.154 196.93L433.957 200.365L428.799 201.571L429.796 205.838L434.955 204.632L435.761 208.079L422.9 211.086Z"/>
</symbol><symbol id="arrow" viewBox="0 0 52 51">
<path d="M3 25.5L26 48.5L49 25.5" stroke="white" stroke-width="5" stroke-linecap="round" stroke-linejoin="round"/>
<path d="M3 3L26 26L49 3" stroke="white" stroke-width="5" stroke-linecap="round" stroke-linejoin="round"/>
</symbol><symbol id="close" viewBox="0 0 43 43">
<path d="M38.6378 5.06564L5.04211 38.6614" stroke="white" stroke-width="6" stroke-linecap="round" stroke-linejoin="round"/>
<path d="M5 5L38.5957 38.5957" stroke="white" stroke-width="6" stroke-linecap="round" stroke-linejoin="round"/>
</symbol><symbol id="telegram" viewBox="0 0 48 48">
<path d="M24 48C37.2548 48 48 37.2548 48 24C48 10.7452 37.2548 0 24 0C10.7452 0 0 10.7452 0 24C0 37.2548 10.7452 48 24 48Z" fill="#37AEE2"/>
<path d="M8.93822 25.174C11.7438 23.6286 14.8756 22.3388 17.8018 21.0424C22.836 18.919 27.8902 16.8324 32.9954 14.8898C33.9887 14.5588 35.7734 14.2351 35.9484 15.7071C35.8526 17.7907 35.4584 19.8621 35.188 21.9335C34.5017 26.4887 33.7085 31.0283 32.935 35.5685C32.6685 37.0808 30.774 37.8637 29.5618 36.8959C26.6486 34.9281 23.713 32.9795 20.837 30.9661C19.8949 30.0088 20.7685 28.6341 21.6099 27.9505C24.0093 25.5859 26.5539 23.5769 28.8279 21.0901C29.4413 19.6088 27.6289 20.8572 27.0311 21.2397C23.7463 23.5033 20.5419 25.9051 17.0787 27.8945C15.3097 28.8683 13.2479 28.0361 11.4797 27.4927C9.89428 26.8363 7.57106 26.175 8.93806 25.1741L8.93822 25.174Z" fill="white"/>
</symbol><symbol id="viber" viewBox="0 0 79 87">
<path fill-rule="evenodd" clip-rule="evenodd" d="M78.1705 40.5959C78.1705 14.9909 69.1508 3.24585 39.0853 3.24585C9.01967 3.24585 0 14.9909 0 40.5959C0 58.8181 4.56821 70.0207 18.0393 74.9659V83.5868C18.0393 86.76 22.0209 88.2095 24.0833 85.7871L31.0347 77.6225C33.5332 77.8387 36.2132 77.9459 39.0853 77.9459C69.1508 77.9459 78.1705 66.2008 78.1705 40.5959ZM32.6955 71.7331C34.6886 71.8914 36.8161 71.9699 39.0853 71.9699C64.5254 71.9699 72.1574 62.104 72.1574 40.5959C72.1574 19.0877 64.5254 9.22185 39.0853 9.22185C13.6451 9.22185 6.01312 19.0877 6.01312 40.5959C6.01312 55.7985 9.82618 65.1846 21.0459 69.3813V82.1531C21.0459 83.2665 22.4429 83.775 23.1666 82.9251L32.6955 71.7331Z" fill="#BFC8D0"/>
<path d="M39.0853 69.8437C36.7866 69.8437 34.6315 69.7639 32.6125 69.603L22.9599 80.9836C22.2268 81.8479 20.8116 81.3308 20.8116 80.1986V67.2115C9.4462 62.944 5.58362 53.3997 5.58362 37.9407C5.58362 16.0699 13.3148 6.03766 39.0853 6.03766C64.8558 6.03766 72.5869 16.0699 72.5869 37.9407C72.5869 59.8115 64.8558 69.8437 39.0853 69.8437Z" fill="#9179EE"/>
<path fill-rule="evenodd" clip-rule="evenodd" d="M78.1711 37.8041C78.1711 12.1992 69.1514 0.454102 39.0858 0.454102C9.02022 0.454102 0.000549316 12.1992 0.000549316 37.8041C0.000549316 56.0263 4.56876 67.2289 18.0399 72.1741V80.7951C18.0399 83.9683 22.0214 85.4177 24.0839 82.9954L31.0353 74.8308C33.5337 75.047 36.2137 75.1541 39.0858 75.1541C69.1514 75.1541 78.1711 63.409 78.1711 37.8041ZM32.6961 68.9414C34.6891 69.0996 36.8166 69.1781 39.0858 69.1781C64.5259 69.1781 72.1579 59.3122 72.1579 37.8041C72.1579 16.296 64.5259 6.4301 39.0858 6.4301C13.6457 6.4301 6.01366 16.296 6.01366 37.8041C6.01366 53.0068 9.82673 62.3928 21.0465 66.5896V79.3613C21.0465 80.4747 22.4435 80.9833 23.1671 80.1333L32.6961 68.9414Z" fill="white"/>
<path d="M39.9855 14.413C39.1399 14.413 38.4545 15.0582 38.4545 15.854C38.4545 16.6498 39.1399 17.2949 39.9855 17.2949C50.132 17.2949 58.3574 25.0364 58.3574 34.5861C58.3574 35.3819 59.0428 36.027 59.8883 36.027C60.7339 36.027 61.4193 35.3819 61.4193 34.5861C61.4193 23.4448 51.8231 14.413 39.9855 14.413Z" fill="white"/>
<path d="M20.3875 19.114C21.2553 18.6942 22.7838 18.4814 23.6599 19.2496C24.7549 20.2098 26.4427 21.893 27.6022 23.3616C28.7616 24.8301 30.3849 27.0669 30.6168 27.5639C30.8487 28.061 31.1064 29.8233 29.9469 30.8852C29.0193 31.7347 27.8083 32.4893 27.3187 32.7605C26.8635 33.137 26.118 34.2426 26.7776 35.6524C27.6022 37.4147 29.38 40.8715 32.4463 43.4472C35.5125 46.0228 38.7591 47.3784 40.7946 47.8077C40.9241 47.8077 41.0904 47.8368 41.2831 47.8705C41.9727 47.9912 43.0005 48.171 43.8866 47.2881C44.7936 46.3843 45.6216 45.4354 45.9222 45.0739C46.3946 44.5919 47.7671 43.7725 49.478 44.3509C51.6166 45.0739 54.0644 46.6555 55.1724 47.401C56.0588 47.9975 58.0325 49.4119 58.9085 50.0445C59.4411 50.4286 60.3309 51.5718 59.63 53.072C58.7539 54.9473 55.0178 59.0819 51.6681 59.0819C50.4314 59.0819 38.4756 55.8962 27.9113 46.904C21.1632 41.1601 15.3544 31.194 14.3581 27.8351C13.9802 27.0368 13.5336 25.0696 14.7704 23.5875C16.0072 22.1054 17.3986 20.56 20.3875 19.114Z" fill="white"/>
<path d="M39.9855 25.9405C39.1399 25.9405 38.4545 26.5856 38.4545 27.3814C38.4545 28.1772 39.1399 28.8223 39.9855 28.8223C43.3677 28.8223 46.1094 31.4028 46.1094 34.5861C46.1094 35.3819 46.7949 36.027 47.6404 36.027C48.486 36.027 49.1714 35.3819 49.1714 34.5861C49.1714 29.8112 45.0587 25.9405 39.9855 25.9405Z" fill="white"/>
<path d="M38.4545 21.6177C38.4545 20.8219 39.1399 20.1767 39.9855 20.1767C48.4409 20.1767 55.2954 26.628 55.2954 34.5861C55.2954 35.3819 54.6099 36.027 53.7644 36.027C52.9188 36.027 52.2334 35.3819 52.2334 34.5861C52.2334 28.2196 46.7498 23.0586 39.9855 23.0586C39.1399 23.0586 38.4545 22.4135 38.4545 21.6177Z" fill="white"/>
</symbol></symbol><symbol id="telegram" viewBox="0 0 48 48"><path d="M24 48c13.255 0 24-10.745 24-24S37.255 0 24 0 0 10.745 0 24s10.745 24 24 24z" fill="#37AEE2"/><path d="M8.938 25.174c2.806-1.545 5.938-2.835 8.864-4.132 5.034-2.123 10.088-4.21 15.193-6.152.994-.331 2.778-.655 2.953.817-.095 2.084-.49 4.155-.76 6.226-.686 4.556-1.48 9.095-2.253 13.636-.267 1.512-2.161 2.295-3.373 1.327-2.913-1.968-5.849-3.916-8.725-5.93-.942-.957-.069-2.332.773-3.015 2.4-2.365 4.944-4.374 7.218-6.86.613-1.482-1.2-.234-1.797.149-3.285 2.263-6.49 4.665-9.952 6.655-1.77.973-3.831.141-5.6-.402-1.585-.657-3.908-1.318-2.54-2.319z" fill="#fff"/></symbol><symbol id="viber"><path fill-rule="evenodd" clip-rule="evenodd" d="M78.17 40.596c0-25.605-9.02-37.35-39.085-37.35S0 14.99 0 40.596c0 18.222 4.568 29.425 18.04 34.37v8.62c0 3.174 3.98 4.624 6.043 2.201l6.952-8.165c2.498.217 5.178.324 8.05.324 30.066 0 39.086-11.745 39.086-37.35zM32.697 71.733c1.993.158 4.12.237 6.39.237 25.44 0 33.071-9.866 33.071-31.374S64.525 9.222 39.085 9.222 6.013 19.088 6.013 40.596c0 15.203 3.813 24.589 15.033 28.785v12.772c0 1.113 1.397 1.622 2.12.772l9.53-11.192z" fill="#BFC8D0"/><path d="M39.085 69.844a81.63 81.63 0 01-6.473-.241l-9.652 11.38c-.733.865-2.148.348-2.148-.784V67.212C9.446 62.944 5.584 53.4 5.584 37.94c0-21.871 7.73-31.903 33.501-31.903 25.77 0 33.502 10.032 33.502 31.903 0 21.87-7.731 31.903-33.502 31.903z" fill="#9179EE"/><path fill-rule="evenodd" clip-rule="evenodd" d="M78.171 37.804c0-25.605-9.02-37.35-39.085-37.35C9.02.454 0 12.2 0 37.804c0 18.222 4.569 29.426 18.04 34.37v8.621c0 3.173 3.981 4.623 6.044 2.2l6.951-8.164a93.6 93.6 0 008.05.323c30.066 0 39.086-11.745 39.086-37.35zM32.696 68.941c1.993.159 4.12.237 6.39.237 25.44 0 33.072-9.866 33.072-31.374S64.526 6.43 39.086 6.43c-25.44 0-33.072 9.866-33.072 31.374 0 15.203 3.813 24.589 15.033 28.786v12.77c0 1.114 1.396 1.622 2.12.772l9.53-11.192z" fill="#fff"/><path d="M39.986 14.413c-.846 0-1.531.645-1.531 1.441s.685 1.44 1.53 1.44c10.147 0 18.372 7.742 18.372 17.292 0 .796.686 1.441 1.531 1.441.846 0 1.531-.645 1.531-1.44 0-11.142-9.596-20.174-21.433-20.174zm-19.599 4.701c.868-.42 2.397-.633 3.273.136 1.095.96 2.783 2.643 3.942 4.112 1.16 1.468 2.783 3.705 3.015 4.202.232.497.49 2.26-.67 3.321-.928.85-2.139 1.604-2.628 1.875-.456.377-1.201 1.483-.541 2.892.824 1.763 2.602 5.22 5.668 7.795 3.067 2.576 6.313 3.931 8.349 4.36.13 0 .295.03.488.063.69.121 1.718.301 2.604-.582a36.45 36.45 0 002.035-2.214c.473-.482 1.845-1.301 3.556-.723 2.139.723 4.586 2.305 5.694 3.05.887.596 2.86 2.01 3.736 2.643.533.385 1.423 1.528.722 3.028-.876 1.875-4.612 6.01-7.962 6.01-1.237 0-13.192-3.186-23.757-12.178-6.748-5.744-12.557-15.71-13.553-19.069-.378-.798-.824-2.765.412-4.248 1.237-1.482 2.629-3.027 5.617-4.473zm19.599 6.826c-.846 0-1.531.646-1.531 1.441 0 .796.685 1.441 1.53 1.441 3.383 0 6.124 2.58 6.124 5.764 0 .796.686 1.441 1.531 1.441.846 0 1.531-.645 1.531-1.44 0-4.776-4.112-8.647-9.185-8.647z" fill="#fff"/><path d="M38.455 21.618c0-.796.685-1.441 1.53-1.441 8.456 0 15.31 6.451 15.31 14.41 0 .795-.685 1.44-1.53 1.44-.846 0-1.532-.645-1.532-1.44 0-6.367-5.483-11.528-12.247-11.528-.846 0-1.531-.646-1.531-1.441z" fill="#fff"/></symbol></svg>